<mxfile host="app.diagrams.net" agent="Mozilla/5.0 (Macintosh; Intel Mac OS X 10_15_7) AppleWebKit/537.36 (KHTML, like Gecko) Chrome/139.0.0.0 Safari/537.36" version="28.2.3">
  <diagram name="Diagrama de flujo V2" id="IpbyT77kPuxxSmgpsQpR">
    <mxGraphModel dx="1713" dy="751" grid="1" gridSize="11" guides="1" tooltips="1" connect="1" arrows="1" fold="1" page="1" pageScale="1" pageWidth="1169" pageHeight="827" math="0" shadow="0">
      <root>
        <mxCell id="NM9C0UV3FQSLCr77HT34-0" />
        <mxCell id="NM9C0UV3FQSLCr77HT34-1" parent="NM9C0UV3FQSLCr77HT34-0" />
        <mxCell id="NM9C0UV3FQSLCr77HT34-2" style="edgeStyle=orthogonalEdgeStyle;rounded=0;orthogonalLoop=1;jettySize=auto;html=1;exitX=0;exitY=0.5;exitDx=0;exitDy=0;" parent="NM9C0UV3FQSLCr77HT34-1" source="NM9C0UV3FQSLCr77HT34-8" target="NM9C0UV3FQSLCr77HT34-10" edge="1">
          <mxGeometry relative="1" as="geometry" />
        </mxCell>
        <mxCell id="NM9C0UV3FQSLCr77HT34-3" style="edgeStyle=orthogonalEdgeStyle;rounded=0;orthogonalLoop=1;jettySize=auto;html=1;exitX=0;exitY=0.5;exitDx=0;exitDy=0;" parent="NM9C0UV3FQSLCr77HT34-1" source="NM9C0UV3FQSLCr77HT34-8" target="NM9C0UV3FQSLCr77HT34-14" edge="1">
          <mxGeometry relative="1" as="geometry" />
        </mxCell>
        <mxCell id="NM9C0UV3FQSLCr77HT34-4" style="edgeStyle=orthogonalEdgeStyle;rounded=0;orthogonalLoop=1;jettySize=auto;html=1;exitX=1;exitY=0.5;exitDx=0;exitDy=0;" parent="NM9C0UV3FQSLCr77HT34-1" source="NM9C0UV3FQSLCr77HT34-8" target="NM9C0UV3FQSLCr77HT34-27" edge="1">
          <mxGeometry relative="1" as="geometry" />
        </mxCell>
        <mxCell id="NM9C0UV3FQSLCr77HT34-5" style="edgeStyle=orthogonalEdgeStyle;rounded=0;orthogonalLoop=1;jettySize=auto;html=1;exitX=1;exitY=0.5;exitDx=0;exitDy=0;entryX=0.5;entryY=0;entryDx=0;entryDy=0;" parent="NM9C0UV3FQSLCr77HT34-1" source="NM9C0UV3FQSLCr77HT34-8" target="NM9C0UV3FQSLCr77HT34-32" edge="1">
          <mxGeometry relative="1" as="geometry">
            <mxPoint x="4015" y="154" as="targetPoint" />
          </mxGeometry>
        </mxCell>
        <mxCell id="NM9C0UV3FQSLCr77HT34-6" style="edgeStyle=orthogonalEdgeStyle;rounded=0;orthogonalLoop=1;jettySize=auto;html=1;exitX=0;exitY=0.75;exitDx=0;exitDy=0;entryX=0.5;entryY=0;entryDx=0;entryDy=0;" parent="NM9C0UV3FQSLCr77HT34-1" source="NM9C0UV3FQSLCr77HT34-8" target="NM9C0UV3FQSLCr77HT34-19" edge="1">
          <mxGeometry relative="1" as="geometry">
            <Array as="points">
              <mxPoint x="3476" y="50" />
              <mxPoint x="2402" y="50" />
            </Array>
          </mxGeometry>
        </mxCell>
        <mxCell id="NM9C0UV3FQSLCr77HT34-7" style="edgeStyle=orthogonalEdgeStyle;rounded=0;orthogonalLoop=1;jettySize=auto;html=1;exitX=0.5;exitY=1;exitDx=0;exitDy=0;" parent="NM9C0UV3FQSLCr77HT34-1" source="NM9C0UV3FQSLCr77HT34-8" target="NM9C0UV3FQSLCr77HT34-22" edge="1">
          <mxGeometry relative="1" as="geometry" />
        </mxCell>
        <mxCell id="NM9C0UV3FQSLCr77HT34-8" value="&lt;font style=&quot;font-size: 24px;&quot;&gt;Inicio&lt;/font&gt;" style="rounded=1;whiteSpace=wrap;html=1;fillColor=#99CCFF;strokeColor=#66B2FF;" parent="NM9C0UV3FQSLCr77HT34-1" vertex="1">
          <mxGeometry x="3384" y="22" width="143" height="55" as="geometry" />
        </mxCell>
        <mxCell id="NM9C0UV3FQSLCr77HT34-9" value="" style="edgeStyle=orthogonalEdgeStyle;rounded=0;orthogonalLoop=1;jettySize=auto;html=1;" parent="NM9C0UV3FQSLCr77HT34-1" source="NM9C0UV3FQSLCr77HT34-10" target="NM9C0UV3FQSLCr77HT34-33" edge="1">
          <mxGeometry relative="1" as="geometry" />
        </mxCell>
        <mxCell id="NM9C0UV3FQSLCr77HT34-10" value="&amp;nbsp;Pedidos" style="rounded=1;whiteSpace=wrap;html=1;fillColor=#fff2cc;strokeColor=#d6b656;" parent="NM9C0UV3FQSLCr77HT34-1" vertex="1">
          <mxGeometry x="358" y="165" width="124" height="51" as="geometry" />
        </mxCell>
        <mxCell id="NM9C0UV3FQSLCr77HT34-11" style="edgeStyle=orthogonalEdgeStyle;rounded=0;orthogonalLoop=1;jettySize=auto;html=1;exitX=1;exitY=0.5;exitDx=0;exitDy=0;entryX=0.5;entryY=0;entryDx=0;entryDy=0;" parent="NM9C0UV3FQSLCr77HT34-1" source="NM9C0UV3FQSLCr77HT34-14" target="NM9C0UV3FQSLCr77HT34-55" edge="1">
          <mxGeometry relative="1" as="geometry" />
        </mxCell>
        <mxCell id="NM9C0UV3FQSLCr77HT34-13" style="edgeStyle=orthogonalEdgeStyle;rounded=0;orthogonalLoop=1;jettySize=auto;html=1;exitX=1;exitY=0.25;exitDx=0;exitDy=0;" parent="NM9C0UV3FQSLCr77HT34-1" source="NM9C0UV3FQSLCr77HT34-14" target="NM9C0UV3FQSLCr77HT34-258" edge="1">
          <mxGeometry relative="1" as="geometry" />
        </mxCell>
        <mxCell id="sb8Wfn4g1AScv7UdY8Gq-2" style="edgeStyle=orthogonalEdgeStyle;rounded=0;orthogonalLoop=1;jettySize=auto;html=1;exitX=0;exitY=0.5;exitDx=0;exitDy=0;entryX=0.5;entryY=0;entryDx=0;entryDy=0;" parent="NM9C0UV3FQSLCr77HT34-1" source="NM9C0UV3FQSLCr77HT34-14" target="NM9C0UV3FQSLCr77HT34-76" edge="1">
          <mxGeometry relative="1" as="geometry" />
        </mxCell>
        <mxCell id="NM9C0UV3FQSLCr77HT34-14" value="&amp;nbsp;Clientes" style="rounded=1;whiteSpace=wrap;html=1;fillColor=#fff2cc;strokeColor=#d6b656;" parent="NM9C0UV3FQSLCr77HT34-1" vertex="1">
          <mxGeometry x="1210" y="174.5" width="140" height="51" as="geometry" />
        </mxCell>
        <mxCell id="NM9C0UV3FQSLCr77HT34-17" style="edgeStyle=orthogonalEdgeStyle;rounded=0;orthogonalLoop=1;jettySize=auto;html=1;exitX=1;exitY=0.5;exitDx=0;exitDy=0;" parent="NM9C0UV3FQSLCr77HT34-1" source="NM9C0UV3FQSLCr77HT34-19" target="NM9C0UV3FQSLCr77HT34-94" edge="1">
          <mxGeometry relative="1" as="geometry" />
        </mxCell>
        <mxCell id="NM9C0UV3FQSLCr77HT34-18" style="edgeStyle=orthogonalEdgeStyle;rounded=0;orthogonalLoop=1;jettySize=auto;html=1;exitX=1;exitY=0.25;exitDx=0;exitDy=0;entryX=0.5;entryY=0;entryDx=0;entryDy=0;" parent="NM9C0UV3FQSLCr77HT34-1" source="NM9C0UV3FQSLCr77HT34-19" target="NM9C0UV3FQSLCr77HT34-249" edge="1">
          <mxGeometry relative="1" as="geometry" />
        </mxCell>
        <mxCell id="sb8Wfn4g1AScv7UdY8Gq-1" style="edgeStyle=orthogonalEdgeStyle;rounded=0;orthogonalLoop=1;jettySize=auto;html=1;exitX=0;exitY=0.5;exitDx=0;exitDy=0;" parent="NM9C0UV3FQSLCr77HT34-1" source="NM9C0UV3FQSLCr77HT34-19" target="NM9C0UV3FQSLCr77HT34-111" edge="1">
          <mxGeometry relative="1" as="geometry" />
        </mxCell>
        <mxCell id="NM9C0UV3FQSLCr77HT34-19" value="&amp;nbsp;Vendedores" style="rounded=1;whiteSpace=wrap;html=1;fillColor=#fff2cc;strokeColor=#d6b656;" parent="NM9C0UV3FQSLCr77HT34-1" vertex="1">
          <mxGeometry x="2336" y="160" width="132" height="67.5" as="geometry" />
        </mxCell>
        <mxCell id="NM9C0UV3FQSLCr77HT34-20" style="edgeStyle=orthogonalEdgeStyle;rounded=0;orthogonalLoop=1;jettySize=auto;html=1;exitX=0;exitY=0.5;exitDx=0;exitDy=0;entryX=0.5;entryY=0;entryDx=0;entryDy=0;" parent="NM9C0UV3FQSLCr77HT34-1" source="NM9C0UV3FQSLCr77HT34-22" target="NM9C0UV3FQSLCr77HT34-149" edge="1">
          <mxGeometry relative="1" as="geometry" />
        </mxCell>
        <mxCell id="NM9C0UV3FQSLCr77HT34-21" style="edgeStyle=orthogonalEdgeStyle;rounded=0;orthogonalLoop=1;jettySize=auto;html=1;exitX=1;exitY=0.5;exitDx=0;exitDy=0;" parent="NM9C0UV3FQSLCr77HT34-1" source="NM9C0UV3FQSLCr77HT34-22" target="NM9C0UV3FQSLCr77HT34-129" edge="1">
          <mxGeometry relative="1" as="geometry" />
        </mxCell>
        <mxCell id="NM9C0UV3FQSLCr77HT34-22" value="Productos" style="rounded=1;whiteSpace=wrap;html=1;fillColor=#fff2cc;strokeColor=#d6b656;" parent="NM9C0UV3FQSLCr77HT34-1" vertex="1">
          <mxGeometry x="3392" y="187.5" width="127" height="66" as="geometry" />
        </mxCell>
        <mxCell id="NM9C0UV3FQSLCr77HT34-25" style="edgeStyle=orthogonalEdgeStyle;rounded=0;orthogonalLoop=1;jettySize=auto;html=1;exitX=1;exitY=0.5;exitDx=0;exitDy=0;" parent="NM9C0UV3FQSLCr77HT34-1" source="NM9C0UV3FQSLCr77HT34-27" target="NM9C0UV3FQSLCr77HT34-168" edge="1">
          <mxGeometry relative="1" as="geometry" />
        </mxCell>
        <mxCell id="VkwYaigTizuBL0gOctIt-0" style="edgeStyle=orthogonalEdgeStyle;rounded=0;orthogonalLoop=1;jettySize=auto;html=1;exitX=0;exitY=0.5;exitDx=0;exitDy=0;" parent="NM9C0UV3FQSLCr77HT34-1" source="NM9C0UV3FQSLCr77HT34-27" target="NM9C0UV3FQSLCr77HT34-179" edge="1">
          <mxGeometry relative="1" as="geometry" />
        </mxCell>
        <mxCell id="NM9C0UV3FQSLCr77HT34-27" value="Marcas" style="rounded=1;whiteSpace=wrap;html=1;fillColor=#fff2cc;strokeColor=#d6b656;" parent="NM9C0UV3FQSLCr77HT34-1" vertex="1">
          <mxGeometry x="4145" y="178.31" width="138" height="63.25" as="geometry" />
        </mxCell>
        <mxCell id="NM9C0UV3FQSLCr77HT34-28" style="edgeStyle=orthogonalEdgeStyle;rounded=0;orthogonalLoop=1;jettySize=auto;html=1;exitX=0;exitY=0.5;exitDx=0;exitDy=0;" parent="NM9C0UV3FQSLCr77HT34-1" source="NM9C0UV3FQSLCr77HT34-32" target="NM9C0UV3FQSLCr77HT34-242" edge="1">
          <mxGeometry relative="1" as="geometry" />
        </mxCell>
        <mxCell id="NM9C0UV3FQSLCr77HT34-29" style="edgeStyle=orthogonalEdgeStyle;rounded=0;orthogonalLoop=1;jettySize=auto;html=1;exitX=0.5;exitY=1;exitDx=0;exitDy=0;" parent="NM9C0UV3FQSLCr77HT34-1" source="NM9C0UV3FQSLCr77HT34-32" target="NM9C0UV3FQSLCr77HT34-208" edge="1">
          <mxGeometry relative="1" as="geometry" />
        </mxCell>
        <mxCell id="NM9C0UV3FQSLCr77HT34-30" style="edgeStyle=orthogonalEdgeStyle;rounded=0;orthogonalLoop=1;jettySize=auto;html=1;exitX=1;exitY=0.5;exitDx=0;exitDy=0;" parent="NM9C0UV3FQSLCr77HT34-1" source="NM9C0UV3FQSLCr77HT34-32" target="NM9C0UV3FQSLCr77HT34-197" edge="1">
          <mxGeometry relative="1" as="geometry" />
        </mxCell>
        <mxCell id="NM9C0UV3FQSLCr77HT34-31" style="edgeStyle=orthogonalEdgeStyle;rounded=0;orthogonalLoop=1;jettySize=auto;html=1;exitX=1;exitY=0.25;exitDx=0;exitDy=0;" parent="NM9C0UV3FQSLCr77HT34-1" source="NM9C0UV3FQSLCr77HT34-32" target="NM9C0UV3FQSLCr77HT34-283" edge="1">
          <mxGeometry relative="1" as="geometry" />
        </mxCell>
        <mxCell id="NM9C0UV3FQSLCr77HT34-32" value="Canal de clientes" style="rounded=1;whiteSpace=wrap;html=1;fillColor=#fff2cc;strokeColor=#d6b656;" parent="NM9C0UV3FQSLCr77HT34-1" vertex="1">
          <mxGeometry x="5061" y="165" width="143" height="76.5" as="geometry" />
        </mxCell>
        <mxCell id="NM9C0UV3FQSLCr77HT34-33" value="Registrar pedido" style="ellipse;whiteSpace=wrap;html=1;fillColor=#D4E1F5;" parent="NM9C0UV3FQSLCr77HT34-1" vertex="1">
          <mxGeometry x="359" y="275" width="120" height="60" as="geometry" />
        </mxCell>
        <mxCell id="NM9C0UV3FQSLCr77HT34-34" value="Ingresar al Módulo de Pedidos" style="rounded=1;whiteSpace=wrap;html=1;" parent="NM9C0UV3FQSLCr77HT34-1" vertex="1">
          <mxGeometry x="319" y="375" width="200" height="60" as="geometry" />
        </mxCell>
        <mxCell id="NM9C0UV3FQSLCr77HT34-35" style="edgeStyle=orthogonalEdgeStyle;endArrow=block;" parent="NM9C0UV3FQSLCr77HT34-1" source="NM9C0UV3FQSLCr77HT34-33" target="NM9C0UV3FQSLCr77HT34-34" edge="1">
          <mxGeometry relative="1" as="geometry" />
        </mxCell>
        <mxCell id="NM9C0UV3FQSLCr77HT34-36" value="" style="edgeStyle=orthogonalEdgeStyle;rounded=0;orthogonalLoop=1;jettySize=auto;html=1;" parent="NM9C0UV3FQSLCr77HT34-1" source="NM9C0UV3FQSLCr77HT34-37" target="NM9C0UV3FQSLCr77HT34-38" edge="1">
          <mxGeometry relative="1" as="geometry" />
        </mxCell>
        <mxCell id="NM9C0UV3FQSLCr77HT34-37" value="Buscar cliente" style="rounded=1;whiteSpace=wrap;html=1;" parent="NM9C0UV3FQSLCr77HT34-1" vertex="1">
          <mxGeometry x="328.29" y="576.25" width="173.43" height="60" as="geometry" />
        </mxCell>
        <mxCell id="NM9C0UV3FQSLCr77HT34-38" value="¿Cliente existe?" style="rhombus;whiteSpace=wrap;html=1;fillColor=#FFB570;" parent="NM9C0UV3FQSLCr77HT34-1" vertex="1">
          <mxGeometry x="355" y="686" width="120" height="80" as="geometry" />
        </mxCell>
        <mxCell id="NM9C0UV3FQSLCr77HT34-39" value="" style="edgeStyle=orthogonalEdgeStyle;rounded=0;orthogonalLoop=1;jettySize=auto;html=1;" parent="NM9C0UV3FQSLCr77HT34-1" source="NM9C0UV3FQSLCr77HT34-40" target="NM9C0UV3FQSLCr77HT34-294" edge="1">
          <mxGeometry relative="1" as="geometry" />
        </mxCell>
        <mxCell id="NM9C0UV3FQSLCr77HT34-40" value="Seleccionar cliente" style="rounded=1;whiteSpace=wrap;html=1;" parent="NM9C0UV3FQSLCr77HT34-1" vertex="1">
          <mxGeometry x="335" y="833.5" width="160" height="60" as="geometry" />
        </mxCell>
        <mxCell id="NM9C0UV3FQSLCr77HT34-41" value="Sí" style="edgeStyle=orthogonalEdgeStyle;endArrow=block;" parent="NM9C0UV3FQSLCr77HT34-1" source="NM9C0UV3FQSLCr77HT34-38" target="NM9C0UV3FQSLCr77HT34-40" edge="1">
          <mxGeometry relative="1" as="geometry" />
        </mxCell>
        <mxCell id="NM9C0UV3FQSLCr77HT34-42" value="Registrar Cliente" style="rounded=1;whiteSpace=wrap;html=1;" parent="NM9C0UV3FQSLCr77HT34-1" vertex="1">
          <mxGeometry x="19.5" y="1058" width="165" height="65" as="geometry" />
        </mxCell>
        <mxCell id="NM9C0UV3FQSLCr77HT34-43" value="No" style="edgeStyle=orthogonalEdgeStyle;endArrow=block;" parent="NM9C0UV3FQSLCr77HT34-1" source="NM9C0UV3FQSLCr77HT34-38" edge="1">
          <mxGeometry relative="1" as="geometry">
            <mxPoint x="99.0014285714289" y="1056.5" as="targetPoint" />
          </mxGeometry>
        </mxCell>
        <mxCell id="NM9C0UV3FQSLCr77HT34-44" value="Buscar productos Agregar al carrito" style="rounded=1;whiteSpace=wrap;html=1;" parent="NM9C0UV3FQSLCr77HT34-1" vertex="1">
          <mxGeometry x="323.43" y="1049" width="180" height="80" as="geometry" />
        </mxCell>
        <mxCell id="NM9C0UV3FQSLCr77HT34-45" style="edgeStyle=orthogonalEdgeStyle;endArrow=block;" parent="NM9C0UV3FQSLCr77HT34-1" target="NM9C0UV3FQSLCr77HT34-44" edge="1">
          <mxGeometry relative="1" as="geometry">
            <mxPoint x="181.43" y="1089" as="sourcePoint" />
          </mxGeometry>
        </mxCell>
        <mxCell id="NM9C0UV3FQSLCr77HT34-46" value="¿Pedido correcto?" style="rhombus;whiteSpace=wrap;html=1;fillColor=#FFB570;" parent="NM9C0UV3FQSLCr77HT34-1" vertex="1">
          <mxGeometry x="343.43" y="1203" width="140" height="80" as="geometry" />
        </mxCell>
        <mxCell id="NM9C0UV3FQSLCr77HT34-47" style="edgeStyle=orthogonalEdgeStyle;endArrow=block;" parent="NM9C0UV3FQSLCr77HT34-1" source="NM9C0UV3FQSLCr77HT34-44" target="NM9C0UV3FQSLCr77HT34-46" edge="1">
          <mxGeometry relative="1" as="geometry" />
        </mxCell>
        <mxCell id="NM9C0UV3FQSLCr77HT34-48" value="Confirmar pedido" style="rounded=1;whiteSpace=wrap;html=1;" parent="NM9C0UV3FQSLCr77HT34-1" vertex="1">
          <mxGeometry x="334.43" y="1368" width="160" height="60" as="geometry" />
        </mxCell>
        <mxCell id="NM9C0UV3FQSLCr77HT34-49" value="Sí" style="edgeStyle=orthogonalEdgeStyle;endArrow=block;" parent="NM9C0UV3FQSLCr77HT34-1" source="NM9C0UV3FQSLCr77HT34-46" target="NM9C0UV3FQSLCr77HT34-48" edge="1">
          <mxGeometry relative="1" as="geometry" />
        </mxCell>
        <mxCell id="NM9C0UV3FQSLCr77HT34-50" value="Eliminar productos Regresar a selección" style="rounded=1;whiteSpace=wrap;html=1;" parent="NM9C0UV3FQSLCr77HT34-1" vertex="1">
          <mxGeometry x="610.43" y="1049" width="180" height="80" as="geometry" />
        </mxCell>
        <mxCell id="NM9C0UV3FQSLCr77HT34-51" value="No" style="edgeStyle=orthogonalEdgeStyle;endArrow=block;" parent="NM9C0UV3FQSLCr77HT34-1" source="NM9C0UV3FQSLCr77HT34-46" target="NM9C0UV3FQSLCr77HT34-50" edge="1">
          <mxGeometry relative="1" as="geometry" />
        </mxCell>
        <mxCell id="NM9C0UV3FQSLCr77HT34-52" style="edgeStyle=orthogonalEdgeStyle;endArrow=block;" parent="NM9C0UV3FQSLCr77HT34-1" source="NM9C0UV3FQSLCr77HT34-50" target="NM9C0UV3FQSLCr77HT34-44" edge="1">
          <mxGeometry relative="1" as="geometry" />
        </mxCell>
        <mxCell id="NM9C0UV3FQSLCr77HT34-53" value="Pedido registrado exitosamente" style="ellipse;whiteSpace=wrap;html=1;fillColor=#99FF99;" parent="NM9C0UV3FQSLCr77HT34-1" vertex="1">
          <mxGeometry x="314.43" y="1500" width="200" height="60" as="geometry" />
        </mxCell>
        <mxCell id="NM9C0UV3FQSLCr77HT34-54" style="edgeStyle=orthogonalEdgeStyle;endArrow=block;" parent="NM9C0UV3FQSLCr77HT34-1" source="NM9C0UV3FQSLCr77HT34-48" target="NM9C0UV3FQSLCr77HT34-53" edge="1">
          <mxGeometry relative="1" as="geometry" />
        </mxCell>
        <mxCell id="NM9C0UV3FQSLCr77HT34-55" value="Registrar cliente" style="ellipse;whiteSpace=wrap;html=1;fillColor=#D4E1F5;" parent="NM9C0UV3FQSLCr77HT34-1" vertex="1">
          <mxGeometry x="1383" y="308" width="120" height="60" as="geometry" />
        </mxCell>
        <mxCell id="NM9C0UV3FQSLCr77HT34-56" value="Ingresar al módulo Cliente" style="rounded=1;whiteSpace=wrap;html=1;" parent="NM9C0UV3FQSLCr77HT34-1" vertex="1">
          <mxGeometry x="1353" y="408" width="180" height="60" as="geometry" />
        </mxCell>
        <mxCell id="NM9C0UV3FQSLCr77HT34-57" style="edgeStyle=orthogonalEdgeStyle;endArrow=block;" parent="NM9C0UV3FQSLCr77HT34-1" source="NM9C0UV3FQSLCr77HT34-55" target="NM9C0UV3FQSLCr77HT34-56" edge="1">
          <mxGeometry relative="1" as="geometry" />
        </mxCell>
        <mxCell id="NM9C0UV3FQSLCr77HT34-58" value="Asignar Canal Cliente" style="rounded=1;whiteSpace=wrap;html=1;" parent="NM9C0UV3FQSLCr77HT34-1" vertex="1">
          <mxGeometry x="1353" y="488" width="180" height="60" as="geometry" />
        </mxCell>
        <mxCell id="NM9C0UV3FQSLCr77HT34-59" style="edgeStyle=orthogonalEdgeStyle;endArrow=block;" parent="NM9C0UV3FQSLCr77HT34-1" source="NM9C0UV3FQSLCr77HT34-56" target="NM9C0UV3FQSLCr77HT34-58" edge="1">
          <mxGeometry relative="1" as="geometry" />
        </mxCell>
        <mxCell id="NM9C0UV3FQSLCr77HT34-60" value="Asignar Dirección" style="rounded=1;whiteSpace=wrap;html=1;" parent="NM9C0UV3FQSLCr77HT34-1" vertex="1">
          <mxGeometry x="1353" y="578" width="180" height="60" as="geometry" />
        </mxCell>
        <mxCell id="NM9C0UV3FQSLCr77HT34-61" style="edgeStyle=orthogonalEdgeStyle;endArrow=block;" parent="NM9C0UV3FQSLCr77HT34-1" source="NM9C0UV3FQSLCr77HT34-58" target="NM9C0UV3FQSLCr77HT34-60" edge="1">
          <mxGeometry relative="1" as="geometry" />
        </mxCell>
        <mxCell id="NM9C0UV3FQSLCr77HT34-62" value="Asignar Correo" style="rounded=1;whiteSpace=wrap;html=1;" parent="NM9C0UV3FQSLCr77HT34-1" vertex="1">
          <mxGeometry x="1353" y="668" width="180" height="60" as="geometry" />
        </mxCell>
        <mxCell id="NM9C0UV3FQSLCr77HT34-63" style="edgeStyle=orthogonalEdgeStyle;endArrow=block;" parent="NM9C0UV3FQSLCr77HT34-1" source="NM9C0UV3FQSLCr77HT34-60" target="NM9C0UV3FQSLCr77HT34-62" edge="1">
          <mxGeometry relative="1" as="geometry" />
        </mxCell>
        <mxCell id="NM9C0UV3FQSLCr77HT34-64" style="edgeStyle=orthogonalEdgeStyle;rounded=0;orthogonalLoop=1;jettySize=auto;html=1;exitX=0.5;exitY=1;exitDx=0;exitDy=0;" parent="NM9C0UV3FQSLCr77HT34-1" source="NM9C0UV3FQSLCr77HT34-75" target="NM9C0UV3FQSLCr77HT34-67" edge="1">
          <mxGeometry relative="1" as="geometry">
            <mxPoint x="1443" y="858" as="sourcePoint" />
          </mxGeometry>
        </mxCell>
        <mxCell id="NM9C0UV3FQSLCr77HT34-65" style="edgeStyle=orthogonalEdgeStyle;endArrow=block;entryX=0.5;entryY=0;entryDx=0;entryDy=0;" parent="NM9C0UV3FQSLCr77HT34-1" source="NM9C0UV3FQSLCr77HT34-62" target="NM9C0UV3FQSLCr77HT34-75" edge="1">
          <mxGeometry relative="1" as="geometry">
            <mxPoint x="1443" y="778" as="targetPoint" />
          </mxGeometry>
        </mxCell>
        <mxCell id="NM9C0UV3FQSLCr77HT34-66" style="edgeStyle=orthogonalEdgeStyle;rounded=0;orthogonalLoop=1;jettySize=auto;html=1;entryX=0.5;entryY=0;entryDx=0;entryDy=0;" parent="NM9C0UV3FQSLCr77HT34-1" source="NM9C0UV3FQSLCr77HT34-67" target="NM9C0UV3FQSLCr77HT34-69" edge="1">
          <mxGeometry relative="1" as="geometry" />
        </mxCell>
        <mxCell id="NM9C0UV3FQSLCr77HT34-67" value="Asignar Documento" style="rounded=1;whiteSpace=wrap;html=1;" parent="NM9C0UV3FQSLCr77HT34-1" vertex="1">
          <mxGeometry x="1363" y="858" width="160" height="60" as="geometry" />
        </mxCell>
        <mxCell id="NM9C0UV3FQSLCr77HT34-68" value="" style="edgeStyle=orthogonalEdgeStyle;rounded=0;orthogonalLoop=1;jettySize=auto;html=1;" parent="NM9C0UV3FQSLCr77HT34-1" source="NM9C0UV3FQSLCr77HT34-69" target="NM9C0UV3FQSLCr77HT34-71" edge="1">
          <mxGeometry relative="1" as="geometry" />
        </mxCell>
        <mxCell id="NM9C0UV3FQSLCr77HT34-69" value="Asignar Nombre" style="rounded=1;whiteSpace=wrap;html=1;" parent="NM9C0UV3FQSLCr77HT34-1" vertex="1">
          <mxGeometry x="1363" y="948" width="160" height="60" as="geometry" />
        </mxCell>
        <mxCell id="NM9C0UV3FQSLCr77HT34-70" value="" style="edgeStyle=orthogonalEdgeStyle;rounded=0;orthogonalLoop=1;jettySize=auto;html=1;" parent="NM9C0UV3FQSLCr77HT34-1" source="NM9C0UV3FQSLCr77HT34-71" target="NM9C0UV3FQSLCr77HT34-73" edge="1">
          <mxGeometry relative="1" as="geometry" />
        </mxCell>
        <mxCell id="NM9C0UV3FQSLCr77HT34-71" value="Asignar Teléfono" style="rounded=1;whiteSpace=wrap;html=1;" parent="NM9C0UV3FQSLCr77HT34-1" vertex="1">
          <mxGeometry x="1363" y="1048" width="160" height="60" as="geometry" />
        </mxCell>
        <mxCell id="NM9C0UV3FQSLCr77HT34-72" value="" style="edgeStyle=orthogonalEdgeStyle;rounded=0;orthogonalLoop=1;jettySize=auto;html=1;" parent="NM9C0UV3FQSLCr77HT34-1" source="NM9C0UV3FQSLCr77HT34-73" target="NM9C0UV3FQSLCr77HT34-74" edge="1">
          <mxGeometry relative="1" as="geometry" />
        </mxCell>
        <mxCell id="NM9C0UV3FQSLCr77HT34-73" value="Guardar Cliente" style="rounded=1;whiteSpace=wrap;html=1;" parent="NM9C0UV3FQSLCr77HT34-1" vertex="1">
          <mxGeometry x="1353" y="1138" width="180" height="60" as="geometry" />
        </mxCell>
        <mxCell id="NM9C0UV3FQSLCr77HT34-74" value="Cliente Registrado" style="ellipse;whiteSpace=wrap;html=1;fillColor=#CCFFCC;" parent="NM9C0UV3FQSLCr77HT34-1" vertex="1">
          <mxGeometry x="1363" y="1238" width="160" height="60" as="geometry" />
        </mxCell>
        <mxCell id="NM9C0UV3FQSLCr77HT34-75" value="Asignar Tipo de documento" style="rounded=1;whiteSpace=wrap;html=1;" parent="NM9C0UV3FQSLCr77HT34-1" vertex="1">
          <mxGeometry x="1353" y="758" width="180" height="60" as="geometry" />
        </mxCell>
        <mxCell id="NM9C0UV3FQSLCr77HT34-76" value="Buscar cliente" style="ellipse;whiteSpace=wrap;html=1;fillColor=#D4E1F5;" parent="NM9C0UV3FQSLCr77HT34-1" vertex="1">
          <mxGeometry x="969" y="335" width="120" height="60" as="geometry" />
        </mxCell>
        <mxCell id="NM9C0UV3FQSLCr77HT34-77" value="Ingresar al módulo Cliente" style="rounded=1;whiteSpace=wrap;html=1;" parent="NM9C0UV3FQSLCr77HT34-1" vertex="1">
          <mxGeometry x="939" y="445" width="180" height="60" as="geometry" />
        </mxCell>
        <mxCell id="NM9C0UV3FQSLCr77HT34-78" style="edgeStyle=orthogonalEdgeStyle;endArrow=block;" parent="NM9C0UV3FQSLCr77HT34-1" source="NM9C0UV3FQSLCr77HT34-76" target="NM9C0UV3FQSLCr77HT34-77" edge="1">
          <mxGeometry relative="1" as="geometry" />
        </mxCell>
        <mxCell id="NM9C0UV3FQSLCr77HT34-79" value="Escribir nombre del cliente" style="rounded=1;whiteSpace=wrap;html=1;" parent="NM9C0UV3FQSLCr77HT34-1" vertex="1">
          <mxGeometry x="939" y="528.5" width="180" height="60" as="geometry" />
        </mxCell>
        <mxCell id="NM9C0UV3FQSLCr77HT34-80" style="edgeStyle=orthogonalEdgeStyle;endArrow=block;" parent="NM9C0UV3FQSLCr77HT34-1" source="NM9C0UV3FQSLCr77HT34-77" target="NM9C0UV3FQSLCr77HT34-79" edge="1">
          <mxGeometry relative="1" as="geometry" />
        </mxCell>
        <mxCell id="NM9C0UV3FQSLCr77HT34-81" value="Buscar" style="rounded=1;whiteSpace=wrap;html=1;" parent="NM9C0UV3FQSLCr77HT34-1" vertex="1">
          <mxGeometry x="946.5" y="620" width="165" height="50" as="geometry" />
        </mxCell>
        <mxCell id="NM9C0UV3FQSLCr77HT34-82" style="edgeStyle=orthogonalEdgeStyle;endArrow=block;" parent="NM9C0UV3FQSLCr77HT34-1" source="NM9C0UV3FQSLCr77HT34-79" target="NM9C0UV3FQSLCr77HT34-81" edge="1">
          <mxGeometry relative="1" as="geometry" />
        </mxCell>
        <mxCell id="NM9C0UV3FQSLCr77HT34-83" style="edgeStyle=orthogonalEdgeStyle;endArrow=block;" parent="NM9C0UV3FQSLCr77HT34-1" source="NM9C0UV3FQSLCr77HT34-81" edge="1">
          <mxGeometry relative="1" as="geometry">
            <mxPoint x="1029" y="705" as="targetPoint" />
          </mxGeometry>
        </mxCell>
        <mxCell id="NM9C0UV3FQSLCr77HT34-84" value="Resultado de busqueda" style="ellipse;whiteSpace=wrap;html=1;fillColor=#CCFFCC;" parent="NM9C0UV3FQSLCr77HT34-1" vertex="1">
          <mxGeometry x="949" y="907" width="160" height="60" as="geometry" />
        </mxCell>
        <mxCell id="NM9C0UV3FQSLCr77HT34-85" value="" style="edgeStyle=orthogonalEdgeStyle;rounded=0;orthogonalLoop=1;jettySize=auto;html=1;" parent="NM9C0UV3FQSLCr77HT34-1" source="NM9C0UV3FQSLCr77HT34-89" edge="1">
          <mxGeometry relative="1" as="geometry">
            <mxPoint x="921" y="745" as="targetPoint" />
          </mxGeometry>
        </mxCell>
        <mxCell id="NM9C0UV3FQSLCr77HT34-86" value="no" style="edgeLabel;html=1;align=center;verticalAlign=middle;resizable=0;points=[];" parent="NM9C0UV3FQSLCr77HT34-85" vertex="1" connectable="0">
          <mxGeometry x="-0.4821" y="-1" relative="1" as="geometry">
            <mxPoint as="offset" />
          </mxGeometry>
        </mxCell>
        <mxCell id="NM9C0UV3FQSLCr77HT34-87" value="" style="edgeStyle=orthogonalEdgeStyle;rounded=0;orthogonalLoop=1;jettySize=auto;html=1;" parent="NM9C0UV3FQSLCr77HT34-1" source="NM9C0UV3FQSLCr77HT34-89" target="NM9C0UV3FQSLCr77HT34-91" edge="1">
          <mxGeometry relative="1" as="geometry" />
        </mxCell>
        <mxCell id="NM9C0UV3FQSLCr77HT34-88" value="si" style="edgeLabel;html=1;align=center;verticalAlign=middle;resizable=0;points=[];" parent="NM9C0UV3FQSLCr77HT34-87" vertex="1" connectable="0">
          <mxGeometry x="-0.1365" relative="1" as="geometry">
            <mxPoint as="offset" />
          </mxGeometry>
        </mxCell>
        <mxCell id="NM9C0UV3FQSLCr77HT34-89" value="¿Cliente existe?" style="rhombus;whiteSpace=wrap;html=1;fillColor=#FFB570;" parent="NM9C0UV3FQSLCr77HT34-1" vertex="1">
          <mxGeometry x="969" y="705" width="120" height="80" as="geometry" />
        </mxCell>
        <mxCell id="NM9C0UV3FQSLCr77HT34-90" value="" style="edgeStyle=orthogonalEdgeStyle;rounded=0;orthogonalLoop=1;jettySize=auto;html=1;" parent="NM9C0UV3FQSLCr77HT34-1" source="NM9C0UV3FQSLCr77HT34-91" target="NM9C0UV3FQSLCr77HT34-84" edge="1">
          <mxGeometry relative="1" as="geometry" />
        </mxCell>
        <mxCell id="NM9C0UV3FQSLCr77HT34-91" value="Mostrar clientes" style="rounded=1;whiteSpace=wrap;html=1;" parent="NM9C0UV3FQSLCr77HT34-1" vertex="1">
          <mxGeometry x="946.5" y="830" width="165" height="44" as="geometry" />
        </mxCell>
        <mxCell id="NM9C0UV3FQSLCr77HT34-92" value="" style="edgeStyle=orthogonalEdgeStyle;rounded=0;orthogonalLoop=1;jettySize=auto;html=1;exitX=0.533;exitY=0.022;exitDx=0;exitDy=0;exitPerimeter=0;" parent="NM9C0UV3FQSLCr77HT34-1" edge="1">
          <mxGeometry relative="1" as="geometry">
            <mxPoint x="847" y="722" as="sourcePoint" />
            <mxPoint x="939" y="555" as="targetPoint" />
            <Array as="points">
              <mxPoint x="847" y="555" />
              <mxPoint x="939" y="555" />
            </Array>
          </mxGeometry>
        </mxCell>
        <mxCell id="NM9C0UV3FQSLCr77HT34-93" value="Mostrar mensaje &quot;No hay clientes&quot;" style="rounded=1;whiteSpace=wrap;html=1;" parent="NM9C0UV3FQSLCr77HT34-1" vertex="1">
          <mxGeometry x="770" y="727" width="158" height="49" as="geometry" />
        </mxCell>
        <mxCell id="NM9C0UV3FQSLCr77HT34-94" value="Registrar Vendedor" style="ellipse;whiteSpace=wrap;html=1;fillColor=#D4E1F5;" parent="NM9C0UV3FQSLCr77HT34-1" vertex="1">
          <mxGeometry x="2505" y="303" width="120" height="60" as="geometry" />
        </mxCell>
        <mxCell id="NM9C0UV3FQSLCr77HT34-95" value="Ingresar al módulo Vendedor" style="rounded=1;whiteSpace=wrap;html=1;" parent="NM9C0UV3FQSLCr77HT34-1" vertex="1">
          <mxGeometry x="2475" y="413" width="180" height="60" as="geometry" />
        </mxCell>
        <mxCell id="NM9C0UV3FQSLCr77HT34-96" style="edgeStyle=orthogonalEdgeStyle;endArrow=block;" parent="NM9C0UV3FQSLCr77HT34-1" source="NM9C0UV3FQSLCr77HT34-94" target="NM9C0UV3FQSLCr77HT34-95" edge="1">
          <mxGeometry relative="1" as="geometry" />
        </mxCell>
        <mxCell id="NM9C0UV3FQSLCr77HT34-97" value="Asignar Correo" style="rounded=1;whiteSpace=wrap;html=1;" parent="NM9C0UV3FQSLCr77HT34-1" vertex="1">
          <mxGeometry x="2475" y="493" width="180" height="60" as="geometry" />
        </mxCell>
        <mxCell id="NM9C0UV3FQSLCr77HT34-98" style="edgeStyle=orthogonalEdgeStyle;endArrow=block;" parent="NM9C0UV3FQSLCr77HT34-1" source="NM9C0UV3FQSLCr77HT34-95" target="NM9C0UV3FQSLCr77HT34-97" edge="1">
          <mxGeometry relative="1" as="geometry" />
        </mxCell>
        <mxCell id="NM9C0UV3FQSLCr77HT34-99" value="Asignar id cargo trabajador" style="rounded=1;whiteSpace=wrap;html=1;" parent="NM9C0UV3FQSLCr77HT34-1" vertex="1">
          <mxGeometry x="2475" y="583" width="180" height="60" as="geometry" />
        </mxCell>
        <mxCell id="NM9C0UV3FQSLCr77HT34-100" style="edgeStyle=orthogonalEdgeStyle;endArrow=block;" parent="NM9C0UV3FQSLCr77HT34-1" source="NM9C0UV3FQSLCr77HT34-97" target="NM9C0UV3FQSLCr77HT34-99" edge="1">
          <mxGeometry relative="1" as="geometry" />
        </mxCell>
        <mxCell id="NM9C0UV3FQSLCr77HT34-101" value="Asignar id trabajador" style="rounded=1;whiteSpace=wrap;html=1;" parent="NM9C0UV3FQSLCr77HT34-1" vertex="1">
          <mxGeometry x="2475" y="673" width="180" height="60" as="geometry" />
        </mxCell>
        <mxCell id="NM9C0UV3FQSLCr77HT34-102" style="edgeStyle=orthogonalEdgeStyle;endArrow=block;" parent="NM9C0UV3FQSLCr77HT34-1" source="NM9C0UV3FQSLCr77HT34-99" target="NM9C0UV3FQSLCr77HT34-101" edge="1">
          <mxGeometry relative="1" as="geometry" />
        </mxCell>
        <mxCell id="NM9C0UV3FQSLCr77HT34-103" style="edgeStyle=orthogonalEdgeStyle;rounded=0;orthogonalLoop=1;jettySize=auto;html=1;exitX=0.5;exitY=1;exitDx=0;exitDy=0;" parent="NM9C0UV3FQSLCr77HT34-1" source="NM9C0UV3FQSLCr77HT34-110" target="NM9C0UV3FQSLCr77HT34-106" edge="1">
          <mxGeometry relative="1" as="geometry">
            <mxPoint x="2565" y="863" as="sourcePoint" />
          </mxGeometry>
        </mxCell>
        <mxCell id="NM9C0UV3FQSLCr77HT34-104" style="edgeStyle=orthogonalEdgeStyle;endArrow=block;entryX=0.5;entryY=0;entryDx=0;entryDy=0;" parent="NM9C0UV3FQSLCr77HT34-1" source="NM9C0UV3FQSLCr77HT34-101" target="NM9C0UV3FQSLCr77HT34-110" edge="1">
          <mxGeometry relative="1" as="geometry">
            <mxPoint x="2565" y="783" as="targetPoint" />
          </mxGeometry>
        </mxCell>
        <mxCell id="NM9C0UV3FQSLCr77HT34-105" style="edgeStyle=orthogonalEdgeStyle;rounded=0;orthogonalLoop=1;jettySize=auto;html=1;entryX=0.5;entryY=0;entryDx=0;entryDy=0;" parent="NM9C0UV3FQSLCr77HT34-1" source="NM9C0UV3FQSLCr77HT34-106" edge="1">
          <mxGeometry relative="1" as="geometry">
            <mxPoint x="2565" y="953" as="targetPoint" />
          </mxGeometry>
        </mxCell>
        <mxCell id="NM9C0UV3FQSLCr77HT34-106" value="Asignar Telefono" style="rounded=1;whiteSpace=wrap;html=1;" parent="NM9C0UV3FQSLCr77HT34-1" vertex="1">
          <mxGeometry x="2485" y="863" width="160" height="60" as="geometry" />
        </mxCell>
        <mxCell id="NM9C0UV3FQSLCr77HT34-107" value="" style="edgeStyle=orthogonalEdgeStyle;rounded=0;orthogonalLoop=1;jettySize=auto;html=1;" parent="NM9C0UV3FQSLCr77HT34-1" source="NM9C0UV3FQSLCr77HT34-108" target="NM9C0UV3FQSLCr77HT34-109" edge="1">
          <mxGeometry relative="1" as="geometry" />
        </mxCell>
        <mxCell id="NM9C0UV3FQSLCr77HT34-108" value="Guardar Vendedor" style="rounded=1;whiteSpace=wrap;html=1;" parent="NM9C0UV3FQSLCr77HT34-1" vertex="1">
          <mxGeometry x="2475" y="952" width="180" height="60" as="geometry" />
        </mxCell>
        <mxCell id="NM9C0UV3FQSLCr77HT34-109" value="Vendedor Registrado" style="ellipse;whiteSpace=wrap;html=1;fillColor=#CCFFCC;" parent="NM9C0UV3FQSLCr77HT34-1" vertex="1">
          <mxGeometry x="2485" y="1073" width="160" height="60" as="geometry" />
        </mxCell>
        <mxCell id="NM9C0UV3FQSLCr77HT34-110" value="Asignar Nombre" style="rounded=1;whiteSpace=wrap;html=1;" parent="NM9C0UV3FQSLCr77HT34-1" vertex="1">
          <mxGeometry x="2475" y="763" width="180" height="60" as="geometry" />
        </mxCell>
        <mxCell id="NM9C0UV3FQSLCr77HT34-111" value="Buscar Vendedor" style="ellipse;whiteSpace=wrap;html=1;fillColor=#D4E1F5;" parent="NM9C0UV3FQSLCr77HT34-1" vertex="1">
          <mxGeometry x="2123.85" y="308" width="120" height="60" as="geometry" />
        </mxCell>
        <mxCell id="NM9C0UV3FQSLCr77HT34-112" value="Ingresar al módulo Vendedor" style="rounded=1;whiteSpace=wrap;html=1;" parent="NM9C0UV3FQSLCr77HT34-1" vertex="1">
          <mxGeometry x="2093.85" y="418" width="180" height="60" as="geometry" />
        </mxCell>
        <mxCell id="NM9C0UV3FQSLCr77HT34-113" style="edgeStyle=orthogonalEdgeStyle;endArrow=block;" parent="NM9C0UV3FQSLCr77HT34-1" source="NM9C0UV3FQSLCr77HT34-111" target="NM9C0UV3FQSLCr77HT34-112" edge="1">
          <mxGeometry relative="1" as="geometry" />
        </mxCell>
        <mxCell id="NM9C0UV3FQSLCr77HT34-114" value="Escribir nombre del vendedor" style="rounded=1;whiteSpace=wrap;html=1;" parent="NM9C0UV3FQSLCr77HT34-1" vertex="1">
          <mxGeometry x="2093.85" y="501.5" width="180" height="60" as="geometry" />
        </mxCell>
        <mxCell id="NM9C0UV3FQSLCr77HT34-115" style="edgeStyle=orthogonalEdgeStyle;endArrow=block;" parent="NM9C0UV3FQSLCr77HT34-1" source="NM9C0UV3FQSLCr77HT34-112" target="NM9C0UV3FQSLCr77HT34-114" edge="1">
          <mxGeometry relative="1" as="geometry" />
        </mxCell>
        <mxCell id="NM9C0UV3FQSLCr77HT34-116" value="Buscar" style="rounded=1;whiteSpace=wrap;html=1;" parent="NM9C0UV3FQSLCr77HT34-1" vertex="1">
          <mxGeometry x="2101.35" y="593" width="165" height="50" as="geometry" />
        </mxCell>
        <mxCell id="NM9C0UV3FQSLCr77HT34-117" style="edgeStyle=orthogonalEdgeStyle;endArrow=block;" parent="NM9C0UV3FQSLCr77HT34-1" source="NM9C0UV3FQSLCr77HT34-114" target="NM9C0UV3FQSLCr77HT34-116" edge="1">
          <mxGeometry relative="1" as="geometry" />
        </mxCell>
        <mxCell id="NM9C0UV3FQSLCr77HT34-118" style="edgeStyle=orthogonalEdgeStyle;endArrow=block;" parent="NM9C0UV3FQSLCr77HT34-1" source="NM9C0UV3FQSLCr77HT34-116" edge="1">
          <mxGeometry relative="1" as="geometry">
            <mxPoint x="2183.85" y="678" as="targetPoint" />
          </mxGeometry>
        </mxCell>
        <mxCell id="NM9C0UV3FQSLCr77HT34-119" value="Resultado de busqueda" style="ellipse;whiteSpace=wrap;html=1;fillColor=#CCFFCC;" parent="NM9C0UV3FQSLCr77HT34-1" vertex="1">
          <mxGeometry x="2103.85" y="880" width="160" height="60" as="geometry" />
        </mxCell>
        <mxCell id="NM9C0UV3FQSLCr77HT34-120" value="" style="edgeStyle=orthogonalEdgeStyle;rounded=0;orthogonalLoop=1;jettySize=auto;html=1;" parent="NM9C0UV3FQSLCr77HT34-1" source="NM9C0UV3FQSLCr77HT34-124" edge="1">
          <mxGeometry relative="1" as="geometry">
            <mxPoint x="2075.85" y="718" as="targetPoint" />
          </mxGeometry>
        </mxCell>
        <mxCell id="NM9C0UV3FQSLCr77HT34-121" value="no" style="edgeLabel;html=1;align=center;verticalAlign=middle;resizable=0;points=[];" parent="NM9C0UV3FQSLCr77HT34-120" vertex="1" connectable="0">
          <mxGeometry x="-0.4821" y="-1" relative="1" as="geometry">
            <mxPoint as="offset" />
          </mxGeometry>
        </mxCell>
        <mxCell id="NM9C0UV3FQSLCr77HT34-122" value="" style="edgeStyle=orthogonalEdgeStyle;rounded=0;orthogonalLoop=1;jettySize=auto;html=1;" parent="NM9C0UV3FQSLCr77HT34-1" source="NM9C0UV3FQSLCr77HT34-124" target="NM9C0UV3FQSLCr77HT34-127" edge="1">
          <mxGeometry relative="1" as="geometry" />
        </mxCell>
        <mxCell id="NM9C0UV3FQSLCr77HT34-123" value="si" style="edgeLabel;html=1;align=center;verticalAlign=middle;resizable=0;points=[];" parent="NM9C0UV3FQSLCr77HT34-122" vertex="1" connectable="0">
          <mxGeometry x="-0.1365" relative="1" as="geometry">
            <mxPoint as="offset" />
          </mxGeometry>
        </mxCell>
        <mxCell id="NM9C0UV3FQSLCr77HT34-124" value="¿Vendedor existe?" style="rhombus;whiteSpace=wrap;html=1;fillColor=#FFB570;" parent="NM9C0UV3FQSLCr77HT34-1" vertex="1">
          <mxGeometry x="2123.85" y="678" width="120" height="80" as="geometry" />
        </mxCell>
        <mxCell id="NM9C0UV3FQSLCr77HT34-125" value="Mostrar mensaje &quot;No hay vendedor&quot;" style="rounded=1;whiteSpace=wrap;html=1;" parent="NM9C0UV3FQSLCr77HT34-1" vertex="1">
          <mxGeometry x="1914" y="698.99" width="158" height="49" as="geometry" />
        </mxCell>
        <mxCell id="NM9C0UV3FQSLCr77HT34-126" value="" style="edgeStyle=orthogonalEdgeStyle;rounded=0;orthogonalLoop=1;jettySize=auto;html=1;" parent="NM9C0UV3FQSLCr77HT34-1" source="NM9C0UV3FQSLCr77HT34-127" target="NM9C0UV3FQSLCr77HT34-119" edge="1">
          <mxGeometry relative="1" as="geometry" />
        </mxCell>
        <mxCell id="NM9C0UV3FQSLCr77HT34-127" value="Mostrar vendedor" style="rounded=1;whiteSpace=wrap;html=1;" parent="NM9C0UV3FQSLCr77HT34-1" vertex="1">
          <mxGeometry x="2101.35" y="803" width="165" height="44" as="geometry" />
        </mxCell>
        <mxCell id="NM9C0UV3FQSLCr77HT34-128" value="" style="edgeStyle=orthogonalEdgeStyle;rounded=0;orthogonalLoop=1;jettySize=auto;html=1;exitX=0.533;exitY=0.022;exitDx=0;exitDy=0;exitPerimeter=0;" parent="NM9C0UV3FQSLCr77HT34-1" edge="1">
          <mxGeometry relative="1" as="geometry">
            <mxPoint x="2002.0639999999999" y="694.578" as="sourcePoint" />
            <mxPoint x="2093.85" y="528" as="targetPoint" />
            <Array as="points">
              <mxPoint x="2001.85" y="528" />
              <mxPoint x="2093.85" y="528" />
            </Array>
          </mxGeometry>
        </mxCell>
        <mxCell id="NM9C0UV3FQSLCr77HT34-129" value="Registrar Producto" style="ellipse;whiteSpace=wrap;html=1;fillColor=#D4E1F5;" parent="NM9C0UV3FQSLCr77HT34-1" vertex="1">
          <mxGeometry x="3539" y="369" width="120" height="60" as="geometry" />
        </mxCell>
        <mxCell id="NM9C0UV3FQSLCr77HT34-130" value="Ingresar al módulo Producto" style="rounded=1;whiteSpace=wrap;html=1;" parent="NM9C0UV3FQSLCr77HT34-1" vertex="1">
          <mxGeometry x="3509" y="498" width="180" height="60" as="geometry" />
        </mxCell>
        <mxCell id="NM9C0UV3FQSLCr77HT34-131" style="edgeStyle=orthogonalEdgeStyle;endArrow=block;" parent="NM9C0UV3FQSLCr77HT34-1" source="NM9C0UV3FQSLCr77HT34-129" target="NM9C0UV3FQSLCr77HT34-130" edge="1">
          <mxGeometry relative="1" as="geometry" />
        </mxCell>
        <mxCell id="NM9C0UV3FQSLCr77HT34-132" value="Asignar Nombre del producto" style="rounded=1;whiteSpace=wrap;html=1;" parent="NM9C0UV3FQSLCr77HT34-1" vertex="1">
          <mxGeometry x="3509" y="584.5" width="180" height="60" as="geometry" />
        </mxCell>
        <mxCell id="NM9C0UV3FQSLCr77HT34-133" style="edgeStyle=orthogonalEdgeStyle;endArrow=block;" parent="NM9C0UV3FQSLCr77HT34-1" source="NM9C0UV3FQSLCr77HT34-130" target="NM9C0UV3FQSLCr77HT34-132" edge="1">
          <mxGeometry relative="1" as="geometry" />
        </mxCell>
        <mxCell id="NM9C0UV3FQSLCr77HT34-134" value="Asignar Cantidad" style="rounded=1;whiteSpace=wrap;html=1;" parent="NM9C0UV3FQSLCr77HT34-1" vertex="1">
          <mxGeometry x="3509" y="671" width="180" height="60" as="geometry" />
        </mxCell>
        <mxCell id="NM9C0UV3FQSLCr77HT34-135" style="edgeStyle=orthogonalEdgeStyle;endArrow=block;" parent="NM9C0UV3FQSLCr77HT34-1" source="NM9C0UV3FQSLCr77HT34-132" target="NM9C0UV3FQSLCr77HT34-134" edge="1">
          <mxGeometry relative="1" as="geometry" />
        </mxCell>
        <mxCell id="NM9C0UV3FQSLCr77HT34-136" value="Seleccionar&lt;span style=&quot;background-color: transparent; color: light-dark(rgb(0, 0, 0), rgb(255, 255, 255));&quot;&gt;&amp;nbsp;Marca&lt;/span&gt;" style="rounded=1;whiteSpace=wrap;html=1;" parent="NM9C0UV3FQSLCr77HT34-1" vertex="1">
          <mxGeometry x="3509" y="761" width="180" height="60" as="geometry" />
        </mxCell>
        <mxCell id="NM9C0UV3FQSLCr77HT34-137" style="edgeStyle=orthogonalEdgeStyle;endArrow=block;" parent="NM9C0UV3FQSLCr77HT34-1" source="NM9C0UV3FQSLCr77HT34-134" target="NM9C0UV3FQSLCr77HT34-136" edge="1">
          <mxGeometry relative="1" as="geometry" />
        </mxCell>
        <mxCell id="NM9C0UV3FQSLCr77HT34-138" style="edgeStyle=orthogonalEdgeStyle;rounded=0;orthogonalLoop=1;jettySize=auto;html=1;exitX=0.5;exitY=1;exitDx=0;exitDy=0;" parent="NM9C0UV3FQSLCr77HT34-1" source="NM9C0UV3FQSLCr77HT34-144" target="NM9C0UV3FQSLCr77HT34-141" edge="1">
          <mxGeometry relative="1" as="geometry">
            <mxPoint x="3599" y="951" as="sourcePoint" />
          </mxGeometry>
        </mxCell>
        <mxCell id="NM9C0UV3FQSLCr77HT34-139" style="edgeStyle=orthogonalEdgeStyle;endArrow=block;entryX=0.5;entryY=0;entryDx=0;entryDy=0;" parent="NM9C0UV3FQSLCr77HT34-1" source="NM9C0UV3FQSLCr77HT34-136" target="NM9C0UV3FQSLCr77HT34-144" edge="1">
          <mxGeometry relative="1" as="geometry">
            <mxPoint x="3599" y="871" as="targetPoint" />
          </mxGeometry>
        </mxCell>
        <mxCell id="NM9C0UV3FQSLCr77HT34-140" style="edgeStyle=orthogonalEdgeStyle;rounded=0;orthogonalLoop=1;jettySize=auto;html=1;entryX=0.5;entryY=0;entryDx=0;entryDy=0;" parent="NM9C0UV3FQSLCr77HT34-1" source="NM9C0UV3FQSLCr77HT34-141" edge="1">
          <mxGeometry relative="1" as="geometry">
            <mxPoint x="3599" y="1041" as="targetPoint" />
          </mxGeometry>
        </mxCell>
        <mxCell id="NM9C0UV3FQSLCr77HT34-141" value="Seleccionar Categoria" style="rounded=1;whiteSpace=wrap;html=1;" parent="NM9C0UV3FQSLCr77HT34-1" vertex="1">
          <mxGeometry x="3519" y="951" width="160" height="60" as="geometry" />
        </mxCell>
        <mxCell id="NM9C0UV3FQSLCr77HT34-142" value="" style="edgeStyle=orthogonalEdgeStyle;rounded=0;orthogonalLoop=1;jettySize=auto;html=1;" parent="NM9C0UV3FQSLCr77HT34-1" source="NM9C0UV3FQSLCr77HT34-143" edge="1">
          <mxGeometry relative="1" as="geometry">
            <mxPoint x="3599" y="1370" as="targetPoint" />
          </mxGeometry>
        </mxCell>
        <mxCell id="NM9C0UV3FQSLCr77HT34-143" value="Guardar Producto" style="rounded=1;whiteSpace=wrap;html=1;" parent="NM9C0UV3FQSLCr77HT34-1" vertex="1">
          <mxGeometry x="3509" y="1249" width="180" height="60" as="geometry" />
        </mxCell>
        <mxCell id="NM9C0UV3FQSLCr77HT34-144" value="Asignar Descripcion" style="rounded=1;whiteSpace=wrap;html=1;" parent="NM9C0UV3FQSLCr77HT34-1" vertex="1">
          <mxGeometry x="3509" y="853" width="180" height="60" as="geometry" />
        </mxCell>
        <mxCell id="NM9C0UV3FQSLCr77HT34-145" value="" style="edgeStyle=orthogonalEdgeStyle;rounded=0;orthogonalLoop=1;jettySize=auto;html=1;" parent="NM9C0UV3FQSLCr77HT34-1" source="NM9C0UV3FQSLCr77HT34-146" target="NM9C0UV3FQSLCr77HT34-143" edge="1">
          <mxGeometry relative="1" as="geometry" />
        </mxCell>
        <mxCell id="NM9C0UV3FQSLCr77HT34-146" value="Seleccionar Formato" style="rounded=1;whiteSpace=wrap;html=1;" parent="NM9C0UV3FQSLCr77HT34-1" vertex="1">
          <mxGeometry x="3519" y="1140" width="160" height="60" as="geometry" />
        </mxCell>
        <mxCell id="NM9C0UV3FQSLCr77HT34-147" value="" style="edgeStyle=orthogonalEdgeStyle;rounded=0;orthogonalLoop=1;jettySize=auto;html=1;" parent="NM9C0UV3FQSLCr77HT34-1" source="NM9C0UV3FQSLCr77HT34-148" target="NM9C0UV3FQSLCr77HT34-146" edge="1">
          <mxGeometry relative="1" as="geometry" />
        </mxCell>
        <mxCell id="NM9C0UV3FQSLCr77HT34-148" value="Asignar Precio" style="rounded=1;whiteSpace=wrap;html=1;" parent="NM9C0UV3FQSLCr77HT34-1" vertex="1">
          <mxGeometry x="3509" y="1040" width="180" height="60" as="geometry" />
        </mxCell>
        <mxCell id="NM9C0UV3FQSLCr77HT34-149" value="Buscar Producto" style="ellipse;whiteSpace=wrap;html=1;fillColor=#D4E1F5;" parent="NM9C0UV3FQSLCr77HT34-1" vertex="1">
          <mxGeometry x="3231" y="369" width="120" height="60" as="geometry" />
        </mxCell>
        <mxCell id="NM9C0UV3FQSLCr77HT34-150" value="Ingresar al módulo Producto" style="rounded=1;whiteSpace=wrap;html=1;" parent="NM9C0UV3FQSLCr77HT34-1" vertex="1">
          <mxGeometry x="3201" y="501" width="180" height="60" as="geometry" />
        </mxCell>
        <mxCell id="NM9C0UV3FQSLCr77HT34-151" style="edgeStyle=orthogonalEdgeStyle;endArrow=block;" parent="NM9C0UV3FQSLCr77HT34-1" source="NM9C0UV3FQSLCr77HT34-149" target="NM9C0UV3FQSLCr77HT34-150" edge="1">
          <mxGeometry relative="1" as="geometry" />
        </mxCell>
        <mxCell id="NM9C0UV3FQSLCr77HT34-152" value="Escribir nombre del producto" style="rounded=1;whiteSpace=wrap;html=1;" parent="NM9C0UV3FQSLCr77HT34-1" vertex="1">
          <mxGeometry x="3201" y="584.5" width="180" height="60" as="geometry" />
        </mxCell>
        <mxCell id="NM9C0UV3FQSLCr77HT34-153" style="edgeStyle=orthogonalEdgeStyle;endArrow=block;" parent="NM9C0UV3FQSLCr77HT34-1" source="NM9C0UV3FQSLCr77HT34-150" target="NM9C0UV3FQSLCr77HT34-152" edge="1">
          <mxGeometry relative="1" as="geometry" />
        </mxCell>
        <mxCell id="NM9C0UV3FQSLCr77HT34-154" value="Buscar" style="rounded=1;whiteSpace=wrap;html=1;" parent="NM9C0UV3FQSLCr77HT34-1" vertex="1">
          <mxGeometry x="3208.5" y="676" width="165" height="50" as="geometry" />
        </mxCell>
        <mxCell id="NM9C0UV3FQSLCr77HT34-155" style="edgeStyle=orthogonalEdgeStyle;endArrow=block;" parent="NM9C0UV3FQSLCr77HT34-1" source="NM9C0UV3FQSLCr77HT34-152" target="NM9C0UV3FQSLCr77HT34-154" edge="1">
          <mxGeometry relative="1" as="geometry" />
        </mxCell>
        <mxCell id="NM9C0UV3FQSLCr77HT34-156" style="edgeStyle=orthogonalEdgeStyle;endArrow=block;" parent="NM9C0UV3FQSLCr77HT34-1" source="NM9C0UV3FQSLCr77HT34-154" edge="1">
          <mxGeometry relative="1" as="geometry">
            <mxPoint x="3291" y="761" as="targetPoint" />
          </mxGeometry>
        </mxCell>
        <mxCell id="NM9C0UV3FQSLCr77HT34-157" value="Resultado de busqueda" style="ellipse;whiteSpace=wrap;html=1;fillColor=#CCFFCC;" parent="NM9C0UV3FQSLCr77HT34-1" vertex="1">
          <mxGeometry x="3211" y="963" width="160" height="60" as="geometry" />
        </mxCell>
        <mxCell id="NM9C0UV3FQSLCr77HT34-158" value="" style="edgeStyle=orthogonalEdgeStyle;rounded=0;orthogonalLoop=1;jettySize=auto;html=1;" parent="NM9C0UV3FQSLCr77HT34-1" source="NM9C0UV3FQSLCr77HT34-162" target="NM9C0UV3FQSLCr77HT34-163" edge="1">
          <mxGeometry relative="1" as="geometry" />
        </mxCell>
        <mxCell id="NM9C0UV3FQSLCr77HT34-159" value="no" style="edgeLabel;html=1;align=center;verticalAlign=middle;resizable=0;points=[];" parent="NM9C0UV3FQSLCr77HT34-158" vertex="1" connectable="0">
          <mxGeometry x="-0.4821" y="-1" relative="1" as="geometry">
            <mxPoint as="offset" />
          </mxGeometry>
        </mxCell>
        <mxCell id="NM9C0UV3FQSLCr77HT34-160" value="" style="edgeStyle=orthogonalEdgeStyle;rounded=0;orthogonalLoop=1;jettySize=auto;html=1;" parent="NM9C0UV3FQSLCr77HT34-1" source="NM9C0UV3FQSLCr77HT34-162" target="NM9C0UV3FQSLCr77HT34-165" edge="1">
          <mxGeometry relative="1" as="geometry" />
        </mxCell>
        <mxCell id="NM9C0UV3FQSLCr77HT34-161" value="si" style="edgeLabel;html=1;align=center;verticalAlign=middle;resizable=0;points=[];" parent="NM9C0UV3FQSLCr77HT34-160" vertex="1" connectable="0">
          <mxGeometry x="-0.1365" relative="1" as="geometry">
            <mxPoint as="offset" />
          </mxGeometry>
        </mxCell>
        <mxCell id="NM9C0UV3FQSLCr77HT34-162" value="¿Producto existe?" style="rhombus;whiteSpace=wrap;html=1;fillColor=#FFB570;" parent="NM9C0UV3FQSLCr77HT34-1" vertex="1">
          <mxGeometry x="3231" y="761" width="120" height="80" as="geometry" />
        </mxCell>
        <mxCell id="NM9C0UV3FQSLCr77HT34-163" value="Mostrar mensaje &quot;No hay producto&quot;" style="rounded=1;whiteSpace=wrap;html=1;" parent="NM9C0UV3FQSLCr77HT34-1" vertex="1">
          <mxGeometry x="3025" y="776.5" width="158" height="49" as="geometry" />
        </mxCell>
        <mxCell id="NM9C0UV3FQSLCr77HT34-164" value="" style="edgeStyle=orthogonalEdgeStyle;rounded=0;orthogonalLoop=1;jettySize=auto;html=1;" parent="NM9C0UV3FQSLCr77HT34-1" source="NM9C0UV3FQSLCr77HT34-165" target="NM9C0UV3FQSLCr77HT34-157" edge="1">
          <mxGeometry relative="1" as="geometry" />
        </mxCell>
        <mxCell id="NM9C0UV3FQSLCr77HT34-165" value="Mostrar productos" style="rounded=1;whiteSpace=wrap;html=1;" parent="NM9C0UV3FQSLCr77HT34-1" vertex="1">
          <mxGeometry x="3208.5" y="886" width="165" height="44" as="geometry" />
        </mxCell>
        <mxCell id="NM9C0UV3FQSLCr77HT34-166" value="" style="edgeStyle=orthogonalEdgeStyle;rounded=0;orthogonalLoop=1;jettySize=auto;html=1;exitX=0.533;exitY=0.022;exitDx=0;exitDy=0;exitPerimeter=0;" parent="NM9C0UV3FQSLCr77HT34-1" source="NM9C0UV3FQSLCr77HT34-163" edge="1">
          <mxGeometry relative="1" as="geometry">
            <mxPoint x="3150" y="644" as="sourcePoint" />
            <mxPoint x="3201" y="611" as="targetPoint" />
            <Array as="points">
              <mxPoint x="3109" y="611" />
              <mxPoint x="3201" y="611" />
            </Array>
          </mxGeometry>
        </mxCell>
        <mxCell id="NM9C0UV3FQSLCr77HT34-167" value="Producto Registrado" style="ellipse;whiteSpace=wrap;html=1;fillColor=#CCFFCC;" parent="NM9C0UV3FQSLCr77HT34-1" vertex="1">
          <mxGeometry x="3511" y="1370" width="176" height="60" as="geometry" />
        </mxCell>
        <mxCell id="NM9C0UV3FQSLCr77HT34-168" value="Registrar Marca" style="ellipse;whiteSpace=wrap;html=1;fillColor=#D4E1F5;" parent="NM9C0UV3FQSLCr77HT34-1" vertex="1">
          <mxGeometry x="4276" y="381.68" width="120" height="60" as="geometry" />
        </mxCell>
        <mxCell id="NM9C0UV3FQSLCr77HT34-169" value="Ingresar al módulo Marcas" style="rounded=1;whiteSpace=wrap;html=1;" parent="NM9C0UV3FQSLCr77HT34-1" vertex="1">
          <mxGeometry x="4246" y="491.68" width="180" height="60" as="geometry" />
        </mxCell>
        <mxCell id="NM9C0UV3FQSLCr77HT34-170" style="edgeStyle=orthogonalEdgeStyle;endArrow=block;" parent="NM9C0UV3FQSLCr77HT34-1" source="NM9C0UV3FQSLCr77HT34-168" target="NM9C0UV3FQSLCr77HT34-169" edge="1">
          <mxGeometry relative="1" as="geometry" />
        </mxCell>
        <mxCell id="NM9C0UV3FQSLCr77HT34-171" value="Asignar nombre marca" style="rounded=1;whiteSpace=wrap;html=1;" parent="NM9C0UV3FQSLCr77HT34-1" vertex="1">
          <mxGeometry x="4246" y="571.68" width="180" height="60" as="geometry" />
        </mxCell>
        <mxCell id="NM9C0UV3FQSLCr77HT34-172" style="edgeStyle=orthogonalEdgeStyle;endArrow=block;" parent="NM9C0UV3FQSLCr77HT34-1" source="NM9C0UV3FQSLCr77HT34-169" target="NM9C0UV3FQSLCr77HT34-171" edge="1">
          <mxGeometry relative="1" as="geometry" />
        </mxCell>
        <mxCell id="NM9C0UV3FQSLCr77HT34-173" value="" style="edgeStyle=orthogonalEdgeStyle;rounded=0;orthogonalLoop=1;jettySize=auto;html=1;" parent="NM9C0UV3FQSLCr77HT34-1" source="NM9C0UV3FQSLCr77HT34-174" target="NM9C0UV3FQSLCr77HT34-177" edge="1">
          <mxGeometry relative="1" as="geometry" />
        </mxCell>
        <mxCell id="NM9C0UV3FQSLCr77HT34-174" value="Asignar codigo de marca" style="rounded=1;whiteSpace=wrap;html=1;" parent="NM9C0UV3FQSLCr77HT34-1" vertex="1">
          <mxGeometry x="4246" y="661.68" width="180" height="60" as="geometry" />
        </mxCell>
        <mxCell id="NM9C0UV3FQSLCr77HT34-175" style="edgeStyle=orthogonalEdgeStyle;endArrow=block;" parent="NM9C0UV3FQSLCr77HT34-1" source="NM9C0UV3FQSLCr77HT34-171" target="NM9C0UV3FQSLCr77HT34-174" edge="1">
          <mxGeometry relative="1" as="geometry" />
        </mxCell>
        <mxCell id="NM9C0UV3FQSLCr77HT34-176" value="" style="edgeStyle=orthogonalEdgeStyle;rounded=0;orthogonalLoop=1;jettySize=auto;html=1;" parent="NM9C0UV3FQSLCr77HT34-1" source="NM9C0UV3FQSLCr77HT34-177" target="NM9C0UV3FQSLCr77HT34-178" edge="1">
          <mxGeometry relative="1" as="geometry" />
        </mxCell>
        <mxCell id="NM9C0UV3FQSLCr77HT34-177" value="Guardar Marca" style="rounded=1;whiteSpace=wrap;html=1;" parent="NM9C0UV3FQSLCr77HT34-1" vertex="1">
          <mxGeometry x="4246" y="766.68" width="180" height="60" as="geometry" />
        </mxCell>
        <mxCell id="NM9C0UV3FQSLCr77HT34-178" value="Marca Registrada" style="ellipse;whiteSpace=wrap;html=1;fillColor=#CCFFCC;" parent="NM9C0UV3FQSLCr77HT34-1" vertex="1">
          <mxGeometry x="4256" y="876.68" width="160" height="60" as="geometry" />
        </mxCell>
        <mxCell id="NM9C0UV3FQSLCr77HT34-179" value="Buscar Marca" style="ellipse;whiteSpace=wrap;html=1;fillColor=#D4E1F5;" parent="NM9C0UV3FQSLCr77HT34-1" vertex="1">
          <mxGeometry x="4005" y="370.68" width="120" height="60" as="geometry" />
        </mxCell>
        <mxCell id="NM9C0UV3FQSLCr77HT34-180" value="Ingresar al módulo Marca" style="rounded=1;whiteSpace=wrap;html=1;" parent="NM9C0UV3FQSLCr77HT34-1" vertex="1">
          <mxGeometry x="3975" y="480.68" width="180" height="60" as="geometry" />
        </mxCell>
        <mxCell id="NM9C0UV3FQSLCr77HT34-181" style="edgeStyle=orthogonalEdgeStyle;endArrow=block;" parent="NM9C0UV3FQSLCr77HT34-1" source="NM9C0UV3FQSLCr77HT34-179" target="NM9C0UV3FQSLCr77HT34-180" edge="1">
          <mxGeometry relative="1" as="geometry" />
        </mxCell>
        <mxCell id="NM9C0UV3FQSLCr77HT34-182" value="Escribir nombre de la marca" style="rounded=1;whiteSpace=wrap;html=1;" parent="NM9C0UV3FQSLCr77HT34-1" vertex="1">
          <mxGeometry x="3975" y="564.18" width="180" height="60" as="geometry" />
        </mxCell>
        <mxCell id="NM9C0UV3FQSLCr77HT34-183" style="edgeStyle=orthogonalEdgeStyle;endArrow=block;" parent="NM9C0UV3FQSLCr77HT34-1" source="NM9C0UV3FQSLCr77HT34-180" target="NM9C0UV3FQSLCr77HT34-182" edge="1">
          <mxGeometry relative="1" as="geometry" />
        </mxCell>
        <mxCell id="NM9C0UV3FQSLCr77HT34-184" value="Buscar" style="rounded=1;whiteSpace=wrap;html=1;" parent="NM9C0UV3FQSLCr77HT34-1" vertex="1">
          <mxGeometry x="3982.5" y="655.68" width="165" height="50" as="geometry" />
        </mxCell>
        <mxCell id="NM9C0UV3FQSLCr77HT34-185" style="edgeStyle=orthogonalEdgeStyle;endArrow=block;" parent="NM9C0UV3FQSLCr77HT34-1" source="NM9C0UV3FQSLCr77HT34-182" target="NM9C0UV3FQSLCr77HT34-184" edge="1">
          <mxGeometry relative="1" as="geometry" />
        </mxCell>
        <mxCell id="NM9C0UV3FQSLCr77HT34-186" style="edgeStyle=orthogonalEdgeStyle;endArrow=block;" parent="NM9C0UV3FQSLCr77HT34-1" source="NM9C0UV3FQSLCr77HT34-184" edge="1">
          <mxGeometry relative="1" as="geometry">
            <mxPoint x="4065" y="740.68" as="targetPoint" />
          </mxGeometry>
        </mxCell>
        <mxCell id="NM9C0UV3FQSLCr77HT34-187" value="Resultado de busqueda" style="ellipse;whiteSpace=wrap;html=1;fillColor=#CCFFCC;" parent="NM9C0UV3FQSLCr77HT34-1" vertex="1">
          <mxGeometry x="3985" y="942.68" width="160" height="60" as="geometry" />
        </mxCell>
        <mxCell id="NM9C0UV3FQSLCr77HT34-188" value="" style="edgeStyle=orthogonalEdgeStyle;rounded=0;orthogonalLoop=1;jettySize=auto;html=1;" parent="NM9C0UV3FQSLCr77HT34-1" source="NM9C0UV3FQSLCr77HT34-192" edge="1">
          <mxGeometry relative="1" as="geometry">
            <mxPoint x="3957" y="780.68" as="targetPoint" />
          </mxGeometry>
        </mxCell>
        <mxCell id="NM9C0UV3FQSLCr77HT34-189" value="no" style="edgeLabel;html=1;align=center;verticalAlign=middle;resizable=0;points=[];" parent="NM9C0UV3FQSLCr77HT34-188" vertex="1" connectable="0">
          <mxGeometry x="-0.4821" y="-1" relative="1" as="geometry">
            <mxPoint as="offset" />
          </mxGeometry>
        </mxCell>
        <mxCell id="NM9C0UV3FQSLCr77HT34-190" value="" style="edgeStyle=orthogonalEdgeStyle;rounded=0;orthogonalLoop=1;jettySize=auto;html=1;" parent="NM9C0UV3FQSLCr77HT34-1" source="NM9C0UV3FQSLCr77HT34-192" target="NM9C0UV3FQSLCr77HT34-194" edge="1">
          <mxGeometry relative="1" as="geometry" />
        </mxCell>
        <mxCell id="NM9C0UV3FQSLCr77HT34-191" value="si" style="edgeLabel;html=1;align=center;verticalAlign=middle;resizable=0;points=[];" parent="NM9C0UV3FQSLCr77HT34-190" vertex="1" connectable="0">
          <mxGeometry x="-0.1365" relative="1" as="geometry">
            <mxPoint as="offset" />
          </mxGeometry>
        </mxCell>
        <mxCell id="NM9C0UV3FQSLCr77HT34-192" value="¿Marca existe?" style="rhombus;whiteSpace=wrap;html=1;fillColor=#FFB570;" parent="NM9C0UV3FQSLCr77HT34-1" vertex="1">
          <mxGeometry x="4005" y="740.68" width="120" height="80" as="geometry" />
        </mxCell>
        <mxCell id="NM9C0UV3FQSLCr77HT34-193" value="" style="edgeStyle=orthogonalEdgeStyle;rounded=0;orthogonalLoop=1;jettySize=auto;html=1;" parent="NM9C0UV3FQSLCr77HT34-1" source="NM9C0UV3FQSLCr77HT34-194" target="NM9C0UV3FQSLCr77HT34-187" edge="1">
          <mxGeometry relative="1" as="geometry" />
        </mxCell>
        <mxCell id="NM9C0UV3FQSLCr77HT34-194" value="Mostrar marcas" style="rounded=1;whiteSpace=wrap;html=1;" parent="NM9C0UV3FQSLCr77HT34-1" vertex="1">
          <mxGeometry x="3982.5" y="865.68" width="165" height="44" as="geometry" />
        </mxCell>
        <mxCell id="NM9C0UV3FQSLCr77HT34-195" value="" style="edgeStyle=orthogonalEdgeStyle;rounded=0;orthogonalLoop=1;jettySize=auto;html=1;exitX=0.533;exitY=0.022;exitDx=0;exitDy=0;exitPerimeter=0;" parent="NM9C0UV3FQSLCr77HT34-1" edge="1">
          <mxGeometry relative="1" as="geometry">
            <mxPoint x="3883" y="757.68" as="sourcePoint" />
            <mxPoint x="3975" y="590.68" as="targetPoint" />
            <Array as="points">
              <mxPoint x="3883" y="590.68" />
              <mxPoint x="3975" y="590.68" />
            </Array>
          </mxGeometry>
        </mxCell>
        <mxCell id="NM9C0UV3FQSLCr77HT34-196" value="Mostrar mensaje &quot;No hay marca&quot;" style="rounded=1;whiteSpace=wrap;html=1;" parent="NM9C0UV3FQSLCr77HT34-1" vertex="1">
          <mxGeometry x="3795" y="761.18" width="158" height="49" as="geometry" />
        </mxCell>
        <mxCell id="NM9C0UV3FQSLCr77HT34-197" value="Registrar Canal de cliente" style="ellipse;whiteSpace=wrap;html=1;fillColor=#D4E1F5;" parent="NM9C0UV3FQSLCr77HT34-1" vertex="1">
          <mxGeometry x="5248" y="362.99" width="120" height="60" as="geometry" />
        </mxCell>
        <mxCell id="NM9C0UV3FQSLCr77HT34-198" value="Ingresar al módulo Canala de cliente" style="rounded=1;whiteSpace=wrap;html=1;" parent="NM9C0UV3FQSLCr77HT34-1" vertex="1">
          <mxGeometry x="5218" y="479.99" width="180" height="60" as="geometry" />
        </mxCell>
        <mxCell id="NM9C0UV3FQSLCr77HT34-199" style="edgeStyle=orthogonalEdgeStyle;endArrow=block;" parent="NM9C0UV3FQSLCr77HT34-1" source="NM9C0UV3FQSLCr77HT34-197" target="NM9C0UV3FQSLCr77HT34-198" edge="1">
          <mxGeometry relative="1" as="geometry" />
        </mxCell>
        <mxCell id="NM9C0UV3FQSLCr77HT34-200" value="Asignar Nombre" style="rounded=1;whiteSpace=wrap;html=1;" parent="NM9C0UV3FQSLCr77HT34-1" vertex="1">
          <mxGeometry x="5218" y="559.99" width="180" height="60" as="geometry" />
        </mxCell>
        <mxCell id="NM9C0UV3FQSLCr77HT34-201" style="edgeStyle=orthogonalEdgeStyle;endArrow=block;" parent="NM9C0UV3FQSLCr77HT34-1" source="NM9C0UV3FQSLCr77HT34-198" target="NM9C0UV3FQSLCr77HT34-200" edge="1">
          <mxGeometry relative="1" as="geometry" />
        </mxCell>
        <mxCell id="NM9C0UV3FQSLCr77HT34-202" value="Asignar Descripcion" style="rounded=1;whiteSpace=wrap;html=1;" parent="NM9C0UV3FQSLCr77HT34-1" vertex="1">
          <mxGeometry x="5218" y="649.99" width="180" height="60" as="geometry" />
        </mxCell>
        <mxCell id="NM9C0UV3FQSLCr77HT34-203" style="edgeStyle=orthogonalEdgeStyle;endArrow=block;" parent="NM9C0UV3FQSLCr77HT34-1" source="NM9C0UV3FQSLCr77HT34-200" target="NM9C0UV3FQSLCr77HT34-202" edge="1">
          <mxGeometry relative="1" as="geometry" />
        </mxCell>
        <mxCell id="NM9C0UV3FQSLCr77HT34-204" style="edgeStyle=orthogonalEdgeStyle;endArrow=block;" parent="NM9C0UV3FQSLCr77HT34-1" source="NM9C0UV3FQSLCr77HT34-202" edge="1">
          <mxGeometry relative="1" as="geometry">
            <mxPoint x="5308" y="739.99" as="targetPoint" />
          </mxGeometry>
        </mxCell>
        <mxCell id="NM9C0UV3FQSLCr77HT34-205" value="" style="edgeStyle=orthogonalEdgeStyle;rounded=0;orthogonalLoop=1;jettySize=auto;html=1;" parent="NM9C0UV3FQSLCr77HT34-1" source="NM9C0UV3FQSLCr77HT34-206" target="NM9C0UV3FQSLCr77HT34-207" edge="1">
          <mxGeometry relative="1" as="geometry" />
        </mxCell>
        <mxCell id="NM9C0UV3FQSLCr77HT34-206" value="Guardar Canal de cliente" style="rounded=1;whiteSpace=wrap;html=1;" parent="NM9C0UV3FQSLCr77HT34-1" vertex="1">
          <mxGeometry x="5218" y="743.99" width="180" height="60" as="geometry" />
        </mxCell>
        <mxCell id="NM9C0UV3FQSLCr77HT34-207" value="Canal de cliente Registrado" style="ellipse;whiteSpace=wrap;html=1;fillColor=#CCFFCC;" parent="NM9C0UV3FQSLCr77HT34-1" vertex="1">
          <mxGeometry x="5228" y="864.99" width="160" height="60" as="geometry" />
        </mxCell>
        <mxCell id="NM9C0UV3FQSLCr77HT34-208" value="Buscar Canal de cliente" style="ellipse;whiteSpace=wrap;html=1;fillColor=#D4E1F5;" parent="NM9C0UV3FQSLCr77HT34-1" vertex="1">
          <mxGeometry x="4911" y="363.99" width="120" height="60" as="geometry" />
        </mxCell>
        <mxCell id="NM9C0UV3FQSLCr77HT34-209" value="Ingresar al módulo canal de clientes" style="rounded=1;whiteSpace=wrap;html=1;" parent="NM9C0UV3FQSLCr77HT34-1" vertex="1">
          <mxGeometry x="4881" y="473.99" width="180" height="60" as="geometry" />
        </mxCell>
        <mxCell id="NM9C0UV3FQSLCr77HT34-210" style="edgeStyle=orthogonalEdgeStyle;endArrow=block;" parent="NM9C0UV3FQSLCr77HT34-1" source="NM9C0UV3FQSLCr77HT34-208" target="NM9C0UV3FQSLCr77HT34-209" edge="1">
          <mxGeometry relative="1" as="geometry" />
        </mxCell>
        <mxCell id="NM9C0UV3FQSLCr77HT34-211" value="Escribir nombre del canal de clientes" style="rounded=1;whiteSpace=wrap;html=1;" parent="NM9C0UV3FQSLCr77HT34-1" vertex="1">
          <mxGeometry x="4881" y="557.49" width="180" height="60" as="geometry" />
        </mxCell>
        <mxCell id="NM9C0UV3FQSLCr77HT34-212" style="edgeStyle=orthogonalEdgeStyle;endArrow=block;" parent="NM9C0UV3FQSLCr77HT34-1" source="NM9C0UV3FQSLCr77HT34-209" target="NM9C0UV3FQSLCr77HT34-211" edge="1">
          <mxGeometry relative="1" as="geometry" />
        </mxCell>
        <mxCell id="NM9C0UV3FQSLCr77HT34-213" value="Buscar" style="rounded=1;whiteSpace=wrap;html=1;" parent="NM9C0UV3FQSLCr77HT34-1" vertex="1">
          <mxGeometry x="4888.5" y="648.99" width="165" height="50" as="geometry" />
        </mxCell>
        <mxCell id="NM9C0UV3FQSLCr77HT34-214" style="edgeStyle=orthogonalEdgeStyle;endArrow=block;" parent="NM9C0UV3FQSLCr77HT34-1" source="NM9C0UV3FQSLCr77HT34-211" target="NM9C0UV3FQSLCr77HT34-213" edge="1">
          <mxGeometry relative="1" as="geometry" />
        </mxCell>
        <mxCell id="NM9C0UV3FQSLCr77HT34-215" style="edgeStyle=orthogonalEdgeStyle;endArrow=block;" parent="NM9C0UV3FQSLCr77HT34-1" source="NM9C0UV3FQSLCr77HT34-213" edge="1">
          <mxGeometry relative="1" as="geometry">
            <mxPoint x="4971" y="733.99" as="targetPoint" />
          </mxGeometry>
        </mxCell>
        <mxCell id="NM9C0UV3FQSLCr77HT34-216" value="Resultado de busqueda" style="ellipse;whiteSpace=wrap;html=1;fillColor=#CCFFCC;" parent="NM9C0UV3FQSLCr77HT34-1" vertex="1">
          <mxGeometry x="4891" y="935.99" width="160" height="60" as="geometry" />
        </mxCell>
        <mxCell id="NM9C0UV3FQSLCr77HT34-217" value="" style="edgeStyle=orthogonalEdgeStyle;rounded=0;orthogonalLoop=1;jettySize=auto;html=1;" parent="NM9C0UV3FQSLCr77HT34-1" source="NM9C0UV3FQSLCr77HT34-221" edge="1">
          <mxGeometry relative="1" as="geometry">
            <mxPoint x="4863" y="773.99" as="targetPoint" />
          </mxGeometry>
        </mxCell>
        <mxCell id="NM9C0UV3FQSLCr77HT34-218" value="no" style="edgeLabel;html=1;align=center;verticalAlign=middle;resizable=0;points=[];" parent="NM9C0UV3FQSLCr77HT34-217" vertex="1" connectable="0">
          <mxGeometry x="-0.4821" y="-1" relative="1" as="geometry">
            <mxPoint as="offset" />
          </mxGeometry>
        </mxCell>
        <mxCell id="NM9C0UV3FQSLCr77HT34-219" value="" style="edgeStyle=orthogonalEdgeStyle;rounded=0;orthogonalLoop=1;jettySize=auto;html=1;" parent="NM9C0UV3FQSLCr77HT34-1" source="NM9C0UV3FQSLCr77HT34-221" target="NM9C0UV3FQSLCr77HT34-223" edge="1">
          <mxGeometry relative="1" as="geometry" />
        </mxCell>
        <mxCell id="NM9C0UV3FQSLCr77HT34-220" value="si" style="edgeLabel;html=1;align=center;verticalAlign=middle;resizable=0;points=[];" parent="NM9C0UV3FQSLCr77HT34-219" vertex="1" connectable="0">
          <mxGeometry x="-0.1365" relative="1" as="geometry">
            <mxPoint as="offset" />
          </mxGeometry>
        </mxCell>
        <mxCell id="NM9C0UV3FQSLCr77HT34-221" value="¿Canal de cliente existe?" style="rhombus;whiteSpace=wrap;html=1;fillColor=#FFB570;" parent="NM9C0UV3FQSLCr77HT34-1" vertex="1">
          <mxGeometry x="4911" y="733.99" width="120" height="80" as="geometry" />
        </mxCell>
        <mxCell id="NM9C0UV3FQSLCr77HT34-222" value="" style="edgeStyle=orthogonalEdgeStyle;rounded=0;orthogonalLoop=1;jettySize=auto;html=1;" parent="NM9C0UV3FQSLCr77HT34-1" source="NM9C0UV3FQSLCr77HT34-223" target="NM9C0UV3FQSLCr77HT34-216" edge="1">
          <mxGeometry relative="1" as="geometry" />
        </mxCell>
        <mxCell id="NM9C0UV3FQSLCr77HT34-223" value="Mostrar canal de clientes" style="rounded=1;whiteSpace=wrap;html=1;" parent="NM9C0UV3FQSLCr77HT34-1" vertex="1">
          <mxGeometry x="4888.5" y="858.99" width="165" height="44" as="geometry" />
        </mxCell>
        <mxCell id="NM9C0UV3FQSLCr77HT34-224" value="" style="edgeStyle=orthogonalEdgeStyle;rounded=0;orthogonalLoop=1;jettySize=auto;html=1;exitX=0.533;exitY=0.022;exitDx=0;exitDy=0;exitPerimeter=0;" parent="NM9C0UV3FQSLCr77HT34-1" edge="1">
          <mxGeometry relative="1" as="geometry">
            <mxPoint x="4789" y="750.99" as="sourcePoint" />
            <mxPoint x="4881" y="583.99" as="targetPoint" />
            <Array as="points">
              <mxPoint x="4789" y="583.99" />
              <mxPoint x="4881" y="583.99" />
            </Array>
          </mxGeometry>
        </mxCell>
        <mxCell id="NM9C0UV3FQSLCr77HT34-225" value="Mostrar mensaje &quot;No hay canal de clientes&quot;" style="rounded=1;whiteSpace=wrap;html=1;" parent="NM9C0UV3FQSLCr77HT34-1" vertex="1">
          <mxGeometry x="4701" y="754.49" width="158" height="49" as="geometry" />
        </mxCell>
        <mxCell id="NM9C0UV3FQSLCr77HT34-241" value="" style="edgeStyle=orthogonalEdgeStyle;rounded=0;orthogonalLoop=1;jettySize=auto;html=1;" parent="NM9C0UV3FQSLCr77HT34-1" source="NM9C0UV3FQSLCr77HT34-242" edge="1">
          <mxGeometry relative="1" as="geometry">
            <mxPoint x="4611" y="462.62" as="targetPoint" />
          </mxGeometry>
        </mxCell>
        <mxCell id="NM9C0UV3FQSLCr77HT34-242" value="Eliminar canal de cliente" style="ellipse;whiteSpace=wrap;html=1;fillColor=#D4E1F5;" parent="NM9C0UV3FQSLCr77HT34-1" vertex="1">
          <mxGeometry x="4551" y="352.62" width="120" height="60" as="geometry" />
        </mxCell>
        <mxCell id="NM9C0UV3FQSLCr77HT34-243" value="" style="edgeStyle=orthogonalEdgeStyle;rounded=0;orthogonalLoop=1;jettySize=auto;html=1;" parent="NM9C0UV3FQSLCr77HT34-1" source="NM9C0UV3FQSLCr77HT34-244" edge="1">
          <mxGeometry relative="1" as="geometry">
            <mxPoint x="4611" y="659.62" as="targetPoint" />
          </mxGeometry>
        </mxCell>
        <mxCell id="NM9C0UV3FQSLCr77HT34-244" value="Seleccionar canal de cliente" style="rounded=1;whiteSpace=wrap;html=1;" parent="NM9C0UV3FQSLCr77HT34-1" vertex="1">
          <mxGeometry x="4521" y="561.62" width="180" height="60" as="geometry" />
        </mxCell>
        <mxCell id="NM9C0UV3FQSLCr77HT34-245" value="" style="edgeStyle=orthogonalEdgeStyle;rounded=0;orthogonalLoop=1;jettySize=auto;html=1;" parent="NM9C0UV3FQSLCr77HT34-1" source="NM9C0UV3FQSLCr77HT34-246" target="NM9C0UV3FQSLCr77HT34-244" edge="1">
          <mxGeometry relative="1" as="geometry" />
        </mxCell>
        <mxCell id="NM9C0UV3FQSLCr77HT34-246" value="Ingresar al módulo Canal de cliente" style="rounded=1;whiteSpace=wrap;html=1;" parent="NM9C0UV3FQSLCr77HT34-1" vertex="1">
          <mxGeometry x="4521" y="465.62" width="180" height="60" as="geometry" />
        </mxCell>
        <mxCell id="NM9C0UV3FQSLCr77HT34-247" value="Canal de cliente eliminado" style="ellipse;whiteSpace=wrap;html=1;fillColor=#CCFFCC;" parent="NM9C0UV3FQSLCr77HT34-1" vertex="1">
          <mxGeometry x="4531" y="659.62" width="160" height="60" as="geometry" />
        </mxCell>
        <mxCell id="NM9C0UV3FQSLCr77HT34-248" value="" style="edgeStyle=orthogonalEdgeStyle;rounded=0;orthogonalLoop=1;jettySize=auto;html=1;" parent="NM9C0UV3FQSLCr77HT34-1" source="NM9C0UV3FQSLCr77HT34-249" target="NM9C0UV3FQSLCr77HT34-253" edge="1">
          <mxGeometry relative="1" as="geometry" />
        </mxCell>
        <mxCell id="NM9C0UV3FQSLCr77HT34-249" value="Editar Vendedor" style="ellipse;whiteSpace=wrap;html=1;fillColor=#D4E1F5;" parent="NM9C0UV3FQSLCr77HT34-1" vertex="1">
          <mxGeometry x="2758" y="306" width="120" height="60" as="geometry" />
        </mxCell>
        <mxCell id="NM9C0UV3FQSLCr77HT34-250" value="" style="edgeStyle=orthogonalEdgeStyle;rounded=0;orthogonalLoop=1;jettySize=auto;html=1;" parent="NM9C0UV3FQSLCr77HT34-1" source="NM9C0UV3FQSLCr77HT34-251" target="NM9C0UV3FQSLCr77HT34-256" edge="1">
          <mxGeometry relative="1" as="geometry" />
        </mxCell>
        <mxCell id="NM9C0UV3FQSLCr77HT34-251" value="Seleccionar Vendedor" style="rounded=1;whiteSpace=wrap;html=1;" parent="NM9C0UV3FQSLCr77HT34-1" vertex="1">
          <mxGeometry x="2728" y="524.75" width="180" height="60" as="geometry" />
        </mxCell>
        <mxCell id="NM9C0UV3FQSLCr77HT34-252" value="" style="edgeStyle=orthogonalEdgeStyle;rounded=0;orthogonalLoop=1;jettySize=auto;html=1;" parent="NM9C0UV3FQSLCr77HT34-1" source="NM9C0UV3FQSLCr77HT34-253" target="NM9C0UV3FQSLCr77HT34-251" edge="1">
          <mxGeometry relative="1" as="geometry" />
        </mxCell>
        <mxCell id="NM9C0UV3FQSLCr77HT34-253" value="Ingresar al módulo Vendedor" style="rounded=1;whiteSpace=wrap;html=1;" parent="NM9C0UV3FQSLCr77HT34-1" vertex="1">
          <mxGeometry x="2728" y="419" width="180" height="60" as="geometry" />
        </mxCell>
        <mxCell id="NM9C0UV3FQSLCr77HT34-254" value="Vendedor actualizado" style="ellipse;whiteSpace=wrap;html=1;fillColor=#CCFFCC;" parent="NM9C0UV3FQSLCr77HT34-1" vertex="1">
          <mxGeometry x="2738" y="714.75" width="160" height="60" as="geometry" />
        </mxCell>
        <mxCell id="NM9C0UV3FQSLCr77HT34-255" value="" style="edgeStyle=orthogonalEdgeStyle;rounded=0;orthogonalLoop=1;jettySize=auto;html=1;" parent="NM9C0UV3FQSLCr77HT34-1" source="NM9C0UV3FQSLCr77HT34-256" target="NM9C0UV3FQSLCr77HT34-254" edge="1">
          <mxGeometry relative="1" as="geometry" />
        </mxCell>
        <mxCell id="NM9C0UV3FQSLCr77HT34-256" value="Modicar datos" style="rounded=1;whiteSpace=wrap;html=1;" parent="NM9C0UV3FQSLCr77HT34-1" vertex="1">
          <mxGeometry x="2728" y="617.25" width="180" height="60" as="geometry" />
        </mxCell>
        <mxCell id="NM9C0UV3FQSLCr77HT34-257" value="" style="edgeStyle=orthogonalEdgeStyle;rounded=0;orthogonalLoop=1;jettySize=auto;html=1;" parent="NM9C0UV3FQSLCr77HT34-1" source="NM9C0UV3FQSLCr77HT34-258" target="NM9C0UV3FQSLCr77HT34-262" edge="1">
          <mxGeometry relative="1" as="geometry" />
        </mxCell>
        <mxCell id="NM9C0UV3FQSLCr77HT34-258" value="Editar Cliente" style="ellipse;whiteSpace=wrap;html=1;fillColor=#D4E1F5;" parent="NM9C0UV3FQSLCr77HT34-1" vertex="1">
          <mxGeometry x="1625" y="301.38" width="120" height="60" as="geometry" />
        </mxCell>
        <mxCell id="NM9C0UV3FQSLCr77HT34-259" value="" style="edgeStyle=orthogonalEdgeStyle;rounded=0;orthogonalLoop=1;jettySize=auto;html=1;" parent="NM9C0UV3FQSLCr77HT34-1" source="NM9C0UV3FQSLCr77HT34-260" target="NM9C0UV3FQSLCr77HT34-265" edge="1">
          <mxGeometry relative="1" as="geometry" />
        </mxCell>
        <mxCell id="NM9C0UV3FQSLCr77HT34-260" value="Seleccionar Cliente" style="rounded=1;whiteSpace=wrap;html=1;" parent="NM9C0UV3FQSLCr77HT34-1" vertex="1">
          <mxGeometry x="1595" y="520.13" width="180" height="60" as="geometry" />
        </mxCell>
        <mxCell id="NM9C0UV3FQSLCr77HT34-261" value="" style="edgeStyle=orthogonalEdgeStyle;rounded=0;orthogonalLoop=1;jettySize=auto;html=1;" parent="NM9C0UV3FQSLCr77HT34-1" source="NM9C0UV3FQSLCr77HT34-262" target="NM9C0UV3FQSLCr77HT34-260" edge="1">
          <mxGeometry relative="1" as="geometry" />
        </mxCell>
        <mxCell id="NM9C0UV3FQSLCr77HT34-262" value="Ingresar al módulo Cliente" style="rounded=1;whiteSpace=wrap;html=1;" parent="NM9C0UV3FQSLCr77HT34-1" vertex="1">
          <mxGeometry x="1595" y="414.38" width="180" height="60" as="geometry" />
        </mxCell>
        <mxCell id="NM9C0UV3FQSLCr77HT34-263" value="Cliente actualizado" style="ellipse;whiteSpace=wrap;html=1;fillColor=#CCFFCC;" parent="NM9C0UV3FQSLCr77HT34-1" vertex="1">
          <mxGeometry x="1605" y="710.13" width="160" height="60" as="geometry" />
        </mxCell>
        <mxCell id="NM9C0UV3FQSLCr77HT34-264" value="" style="edgeStyle=orthogonalEdgeStyle;rounded=0;orthogonalLoop=1;jettySize=auto;html=1;" parent="NM9C0UV3FQSLCr77HT34-1" source="NM9C0UV3FQSLCr77HT34-265" target="NM9C0UV3FQSLCr77HT34-263" edge="1">
          <mxGeometry relative="1" as="geometry" />
        </mxCell>
        <mxCell id="NM9C0UV3FQSLCr77HT34-265" value="Modicar datos" style="rounded=1;whiteSpace=wrap;html=1;" parent="NM9C0UV3FQSLCr77HT34-1" vertex="1">
          <mxGeometry x="1595" y="612.63" width="180" height="60" as="geometry" />
        </mxCell>
        <mxCell id="NM9C0UV3FQSLCr77HT34-282" value="" style="edgeStyle=orthogonalEdgeStyle;rounded=0;orthogonalLoop=1;jettySize=auto;html=1;" parent="NM9C0UV3FQSLCr77HT34-1" source="NM9C0UV3FQSLCr77HT34-283" target="NM9C0UV3FQSLCr77HT34-287" edge="1">
          <mxGeometry relative="1" as="geometry" />
        </mxCell>
        <mxCell id="NM9C0UV3FQSLCr77HT34-283" value="Editar Canal de cliente" style="ellipse;whiteSpace=wrap;html=1;fillColor=#D4E1F5;" parent="NM9C0UV3FQSLCr77HT34-1" vertex="1">
          <mxGeometry x="5530" y="351.24" width="120" height="60" as="geometry" />
        </mxCell>
        <mxCell id="NM9C0UV3FQSLCr77HT34-284" value="" style="edgeStyle=orthogonalEdgeStyle;rounded=0;orthogonalLoop=1;jettySize=auto;html=1;" parent="NM9C0UV3FQSLCr77HT34-1" source="NM9C0UV3FQSLCr77HT34-285" target="NM9C0UV3FQSLCr77HT34-290" edge="1">
          <mxGeometry relative="1" as="geometry" />
        </mxCell>
        <mxCell id="NM9C0UV3FQSLCr77HT34-285" value="Seleccionar Canal de cliente" style="rounded=1;whiteSpace=wrap;html=1;" parent="NM9C0UV3FQSLCr77HT34-1" vertex="1">
          <mxGeometry x="5500" y="569.99" width="180" height="60" as="geometry" />
        </mxCell>
        <mxCell id="NM9C0UV3FQSLCr77HT34-286" value="" style="edgeStyle=orthogonalEdgeStyle;rounded=0;orthogonalLoop=1;jettySize=auto;html=1;" parent="NM9C0UV3FQSLCr77HT34-1" source="NM9C0UV3FQSLCr77HT34-287" target="NM9C0UV3FQSLCr77HT34-285" edge="1">
          <mxGeometry relative="1" as="geometry" />
        </mxCell>
        <mxCell id="NM9C0UV3FQSLCr77HT34-287" value="Ingresar al módulo Canal de cliente" style="rounded=1;whiteSpace=wrap;html=1;" parent="NM9C0UV3FQSLCr77HT34-1" vertex="1">
          <mxGeometry x="5500" y="464.24" width="180" height="60" as="geometry" />
        </mxCell>
        <mxCell id="NM9C0UV3FQSLCr77HT34-288" value="Canal de cliente actualizado" style="ellipse;whiteSpace=wrap;html=1;fillColor=#CCFFCC;" parent="NM9C0UV3FQSLCr77HT34-1" vertex="1">
          <mxGeometry x="5510" y="759.99" width="160" height="60" as="geometry" />
        </mxCell>
        <mxCell id="NM9C0UV3FQSLCr77HT34-289" value="" style="edgeStyle=orthogonalEdgeStyle;rounded=0;orthogonalLoop=1;jettySize=auto;html=1;" parent="NM9C0UV3FQSLCr77HT34-1" source="NM9C0UV3FQSLCr77HT34-290" target="NM9C0UV3FQSLCr77HT34-288" edge="1">
          <mxGeometry relative="1" as="geometry" />
        </mxCell>
        <mxCell id="NM9C0UV3FQSLCr77HT34-290" value="Modicar datos" style="rounded=1;whiteSpace=wrap;html=1;" parent="NM9C0UV3FQSLCr77HT34-1" vertex="1">
          <mxGeometry x="5500" y="662.49" width="180" height="60" as="geometry" />
        </mxCell>
        <mxCell id="NM9C0UV3FQSLCr77HT34-291" value="" style="edgeStyle=orthogonalEdgeStyle;rounded=0;orthogonalLoop=1;jettySize=auto;html=1;" parent="NM9C0UV3FQSLCr77HT34-1" source="NM9C0UV3FQSLCr77HT34-292" target="NM9C0UV3FQSLCr77HT34-37" edge="1">
          <mxGeometry relative="1" as="geometry" />
        </mxCell>
        <mxCell id="NM9C0UV3FQSLCr77HT34-292" value="Buscar trabajador" style="rounded=1;whiteSpace=wrap;html=1;" parent="NM9C0UV3FQSLCr77HT34-1" vertex="1">
          <mxGeometry x="330" y="473" width="170" height="60" as="geometry" />
        </mxCell>
        <mxCell id="NM9C0UV3FQSLCr77HT34-293" value="" style="edgeStyle=orthogonalEdgeStyle;rounded=0;orthogonalLoop=1;jettySize=auto;html=1;" parent="NM9C0UV3FQSLCr77HT34-1" source="NM9C0UV3FQSLCr77HT34-294" target="NM9C0UV3FQSLCr77HT34-44" edge="1">
          <mxGeometry relative="1" as="geometry" />
        </mxCell>
        <mxCell id="NM9C0UV3FQSLCr77HT34-294" value="Selecciona tipo de pago" style="rounded=1;whiteSpace=wrap;html=1;" parent="NM9C0UV3FQSLCr77HT34-1" vertex="1">
          <mxGeometry x="334.43" y="935" width="160" height="60" as="geometry" />
        </mxCell>
      </root>
    </mxGraphModel>
  </diagram>
</mxfile>
